# Blender v2.80 (sub 35) OBJ File: 'barille.blend'
# www.blender.org
mtllib Barrel.mtl
o Barrel_01_Cylinder.004
v -0.517241 2.387646 1.477415
v -1.025633 2.302031 1.337950
v -0.899889 -1.795611 -1.558653
v -1.277661 -1.791387 -1.275545
v -0.465824 -1.791387 -1.744260
v -0.926729 -1.226031 -1.605141
v -1.317243 -1.219096 -1.310544
v -0.476344 -1.219096 -1.796038
v -1.361089 -0.136519 -1.357153
v -0.494785 -0.136519 -1.857314
v -0.949434 0.511776 -1.644467
v -1.347958 0.517006 -1.344502
v -0.491884 0.507904 -1.840657
v -1.799778 -1.795611 0.000000
v -1.743486 -1.791387 0.468714
v -1.743485 -1.791388 -0.468714
v -1.853458 -1.226031 0.000000
v -1.793587 -1.219096 0.485494
v -1.793586 -1.219096 -0.485493
v -1.855874 -0.136518 0.500161
v -1.855874 -0.136519 -0.500161
v -1.898867 0.511776 -0.000000
v -1.838352 0.517006 0.495115
v -1.838352 0.517006 -0.495115
v -0.962143 -0.102598 1.666481
v -0.899889 -1.795610 1.558654
v -0.465824 -1.791387 1.744260
v -1.277661 -1.791387 1.275546
v -0.926729 -1.226031 1.605141
v -0.476344 -1.219096 1.796038
v -1.317243 -1.219095 1.310545
v -0.494785 -0.136518 1.857314
v -1.361089 -0.136518 1.357154
v -0.949433 0.511776 1.644467
v -0.491885 0.507904 1.840657
v -1.347958 0.517006 1.344501
v 0.899889 -1.795611 1.558653
v 1.277661 -1.791387 1.275546
v 0.465824 -1.791387 1.744260
v 0.926729 -1.226031 1.605141
v 1.317243 -1.219096 1.310545
v 0.476343 -1.219096 1.796038
v 1.361089 -0.136519 1.357154
v 0.494785 -0.136518 1.857314
v 0.949433 0.511776 1.644467
v 1.348113 0.507905 1.346313
v 0.490393 0.517006 1.839617
v 1.799778 -1.795611 0.000000
v 1.743486 -1.791387 -0.468714
v 1.743485 -1.791388 0.468715
v 1.853457 -1.226031 0.000000
v 1.793586 -1.219096 -0.485493
v 1.793586 -1.219096 0.485494
v 1.855874 -0.136518 -0.500161
v 1.855874 -0.136518 0.500161
v 1.898867 0.511776 -0.000000
v 1.838352 0.517006 -0.495115
v 1.838352 0.517006 0.495115
v 0.899889 -1.795611 -1.558653
v 0.465824 -1.791388 -1.744260
v 1.277661 -1.791388 -1.275546
v 0.926729 -1.226031 -1.605141
v 0.476344 -1.219096 -1.796038
v 1.317243 -1.219096 -1.310544
v 0.494785 -0.136519 -1.857314
v 1.361089 -0.136519 -1.357153
v 0.949433 0.511776 -1.644467
v 0.491885 0.507904 -1.840657
v 1.348113 0.507904 -1.346313
v 1.880091 1.676944 -0.000000
v 1.808407 1.704160 0.468723
v 1.808407 1.704160 -0.468723
v 0.927699 1.229777 -1.606822
v 0.475991 1.217755 -1.795693
v 1.317120 1.217756 -1.310067
v 1.855398 1.229777 0.000000
v 1.793111 1.217756 -0.485626
v 1.793111 1.217756 0.485626
v 0.927699 1.229778 1.606822
v 1.317120 1.217756 1.310066
v 0.475991 1.217756 1.795693
v -0.927699 1.229777 1.606822
v -0.475991 1.217755 1.795692
v -1.317120 1.217756 1.310066
v -1.855398 1.229777 -0.000000
v -1.793111 1.217756 0.485626
v -1.793111 1.217756 -0.485626
v -0.927699 1.229777 -1.606822
v -1.317120 1.217755 -1.310067
v -0.475991 1.217755 -1.795693
v -1.880092 1.676943 -0.000000
v -1.808407 1.704160 -0.468724
v -1.808407 1.704160 0.468723
v 1.924287 -0.102598 0.000000
v -1.378703 1.364710 -1.367344
v -0.494803 1.364709 -1.877664
v -0.966202 1.358359 -1.673511
v -1.873506 1.364710 0.510319
v -1.873506 1.364710 -0.510320
v -1.932404 1.358359 -0.000000
v -0.494803 1.364710 1.877663
v -1.378703 1.364710 1.367344
v -0.966202 1.358359 1.673511
v 1.378703 1.364710 1.367344
v 0.494803 1.364711 1.877663
v 0.966202 1.358359 1.673511
v 1.873506 1.364710 -0.510320
v 1.873506 1.364710 0.510320
v 1.932404 1.358359 -0.000000
v 0.494803 1.364709 -1.877664
v 1.378703 1.364710 -1.367344
v 0.966202 1.358358 -1.673511
v 0.962143 -0.102599 -1.666481
v -0.940046 1.676944 1.628206
v -1.310130 1.704160 1.331764
v -0.498277 1.704161 1.800488
v -0.962143 -0.102599 -1.666481
v 0.940046 1.676943 -1.628207
v 1.310130 1.704160 -1.331765
v 0.498277 1.704160 -1.800488
v 0.962143 -0.102598 1.666481
v -0.940046 1.676943 -1.628207
v -0.498277 1.704160 -1.800488
v -1.310130 1.704160 -1.331765
v 0.940045 1.676944 1.628207
v 0.498277 1.704160 1.800488
v 1.310130 1.704160 1.331764
v -1.924287 -0.102598 -0.000000
v -0.411851 2.314068 1.332025
v 1.538100 2.387645 -0.290764
v 1.671516 2.302030 -0.219249
v 1.589933 2.365399 0.411146
v -1.538100 2.387645 0.290764
v -1.671516 2.302030 0.219248
v -1.589933 2.365399 -0.411147
v 0.517241 2.387645 -1.477416
v 0.645882 2.302030 -1.557200
v 1.151030 2.365399 -1.171350
v 1.020859 2.387646 1.186651
v 1.025633 2.302031 1.337950
v 0.438903 2.365399 1.582496
v -1.020859 2.387645 -1.186652
v -1.025633 2.302030 -1.337951
v -0.438903 2.365399 -1.582496
v 1.359493 2.314068 -0.309339
v -1.352266 2.328175 0.509034
v 0.278524 2.333086 1.412962
v 0.947642 2.314068 1.022685
v 1.084399 2.333086 -0.947691
v 0.411851 2.314068 -1.332025
v -0.278525 2.333086 -1.412963
v -0.984378 2.306035 -0.962892
v 0.436444 -2.388651 -1.637876
v 1.041852 -2.387553 -1.343112
v 0.000000 2.242331 -1.702760
v 1.684095 -2.387553 0.230715
v 0.642242 -2.387553 1.573827
v -1.041852 -2.387553 1.343112
v -1.684095 -2.387553 0.230716
v -1.578684 -2.389119 -0.674654
v -1.041852 -2.387553 -1.343111
v -0.205074 -2.389119 -1.704507
v 0.000000 -1.807099 -1.808120
v -0.000000 -0.129583 -1.929861
v 1.629354 1.694263 0.940708
v -1.565878 -1.807099 0.904061
v -0.000000 1.222771 1.865052
v 0.000000 -1.221611 -1.864461
v -1.629354 1.694263 -0.940708
v -0.000000 1.222770 -1.865052
v 1.615182 1.222771 0.932526
v 1.671309 -0.129583 0.964931
v 0.000000 1.694263 -1.881416
v 1.686439 1.363131 -0.973666
v 1.686439 1.363132 0.973666
v -0.000000 1.363132 1.947332
v -1.686439 1.363132 0.973666
v -1.686439 1.363131 -0.973666
v -1.615183 1.222771 0.932526
v 1.565878 -1.807099 -0.904060
v -1.615182 1.222771 -0.932526
v -1.671309 -0.129582 0.964930
v -0.000543 2.394220 1.563557
v -1.398121 2.370644 0.872554
v 1.354352 2.394220 -0.781308
v 0.000544 2.394220 -1.563558
v -1.084399 2.333086 0.947690
v 1.362924 2.333086 0.465272
v 1.353809 2.394220 0.782249
v -1.362924 2.333086 -0.465272
v -1.353809 2.394219 -0.782249
v 1.578684 -2.389119 -0.674654
v 1.474633 2.242331 -0.851380
v 1.373610 -2.389118 1.029853
v 1.474633 2.242332 0.851380
v -0.205074 -2.389118 1.704508
v -0.204975 2.238640 1.704523
v -1.472998 -2.388651 0.850436
v -1.474633 2.242332 -0.851380
v 1.653412 0.517201 -0.954597
v 1.671309 -0.129583 -0.964931
v 1.614671 -1.221611 -0.932231
v 1.653411 0.517201 0.954598
v 1.614671 -1.221611 0.932231
v 1.565878 -1.807099 0.904061
v -0.000000 0.517201 1.909195
v -0.000000 -0.129582 1.929861
v -0.000000 -1.221610 1.864462
v -0.000000 -1.807098 1.808121
v -1.653412 0.517201 0.954597
v -1.614671 -1.221611 0.932231
v -1.653412 0.517201 -0.954598
v -1.671309 -0.129583 -0.964930
v -1.614671 -1.221611 -0.932231
v -1.565878 -1.807099 -0.904060
v 1.615183 1.222771 -0.932526
v -0.000000 0.517200 -1.909195
v -0.000000 1.363131 -1.947332
v -1.629354 1.694264 0.940708
v -0.000000 1.694264 1.881415
v 1.629353 1.694264 -0.940708
v -0.411108 2.173322 1.331499
v 0.279268 2.192340 1.412436
v -0.983634 2.165289 -0.963418
v 0.412595 2.173321 -1.332552
v 1.360237 2.173322 -0.309865
v -1.351522 2.187428 0.508508
v 0.948386 2.173322 1.022159
v 1.085143 2.192340 -0.948217
v 1.363667 2.192340 0.464745
v -1.362180 2.192340 -0.465798
v -0.277781 2.192340 -1.413489
v 0.011596 -0.562564 1.706912
v -0.011484 -0.653550 2.105268
v 0.205865 -0.702908 1.686113
v 0.182786 -0.793893 2.084469
v 0.131583 -0.924996 1.631083
v 0.108504 -1.015982 2.029440
v -0.108595 -0.921911 1.617873
v -0.131674 -1.012897 2.016230
v -0.182751 -0.697916 1.664738
v -0.205830 -0.788901 2.063094
v 0.121887 -0.812430 2.076707
v -0.011501 -0.716068 2.090988
v 0.070884 -0.964920 2.038923
v -0.094026 -0.962801 2.029853
v -0.144942 -0.809003 2.062031
v 0.123534 -0.805938 2.048281
v -0.009854 -0.709576 2.062562
v 0.072531 -0.958427 2.010497
v -0.092379 -0.956309 2.001426
v -0.143295 -0.802510 2.033604
v 0.108265 -0.810585 2.046335
v -0.009859 -0.725250 2.058981
v 0.063099 -0.945625 2.012875
v -0.082940 -0.943749 2.004842
v -0.128030 -0.807550 2.033338
v 0.104594 -0.811079 2.184177
v 0.116015 -0.802692 2.173290
v -0.047176 -0.728061 2.184386
v -0.044878 -0.742722 2.194341
v 0.085105 -0.971826 2.154201
v 0.094738 -0.978192 2.140562
v -0.076412 -1.002816 2.145838
v -0.081603 -1.012026 2.131432
v -0.156746 -0.861221 2.170646
v -0.169310 -0.857436 2.158516
v -0.899889 -1.795611 -1.558653
v -1.277661 -1.791387 -1.275545
v -0.465824 -1.791387 -1.744260
v -0.926729 -1.226031 -1.605141
v -1.317243 -1.219096 -1.310544
v -0.476344 -1.219096 -1.796038
v -1.361089 -0.136519 -1.357153
v -0.494785 -0.136519 -1.857314
v -0.949434 0.511776 -1.644467
v -1.347958 0.517006 -1.344502
v -0.491884 0.507904 -1.840657
v -1.799778 -1.795611 0.000000
v -1.743486 -1.791387 0.468714
v -1.743485 -1.791388 -0.468714
v -1.853458 -1.226031 0.000000
v -1.793587 -1.219096 0.485494
v -1.793586 -1.219096 -0.485493
v -1.855874 -0.136518 0.500161
v -1.855874 -0.136519 -0.500161
v -1.898867 0.511776 -0.000000
v -1.838352 0.517006 0.495115
v -1.838352 0.517006 -0.495115
v -0.962143 -0.102598 1.666481
v -0.899889 -1.795610 1.558654
v -0.465824 -1.791387 1.744260
v -1.277661 -1.791387 1.275546
v -0.926729 -1.226031 1.605141
v -0.476344 -1.219096 1.796038
v -1.317243 -1.219095 1.310545
v -0.494785 -0.136518 1.857314
v -1.361089 -0.136518 1.357154
v -0.949433 0.511776 1.644467
v -0.491885 0.507904 1.840657
v -1.347958 0.517006 1.344501
v 0.899889 -1.795611 1.558653
v 1.277661 -1.791387 1.275546
v 0.465824 -1.791387 1.744260
v 0.926729 -1.226031 1.605141
v 1.317243 -1.219096 1.310545
v 0.476343 -1.219096 1.796038
v 1.361089 -0.136519 1.357154
v 0.494785 -0.136518 1.857314
v 0.949433 0.511776 1.644467
v 1.348113 0.507905 1.346313
v 0.490393 0.517006 1.839617
v 1.799778 -1.795611 0.000000
v 1.743486 -1.791387 -0.468714
v 1.743485 -1.791388 0.468715
v 1.853457 -1.226031 0.000000
v 1.793586 -1.219096 -0.485493
v 1.793586 -1.219096 0.485494
v 1.855874 -0.136518 -0.500161
v 1.855874 -0.136518 0.500161
v 1.898867 0.511776 -0.000000
v 1.838352 0.517006 -0.495115
v 1.838352 0.517006 0.495115
v -1.413708 0.390043 -1.413309
v -0.516403 0.383138 -1.932892
v 0.899889 -1.795611 -1.558653
v 0.465824 -1.791388 -1.744260
v 1.277661 -1.791388 -1.275546
v 0.926729 -1.226031 -1.605141
v 0.476344 -1.219096 -1.796038
v 1.317243 -1.219096 -1.310544
v 0.494785 -0.136519 -1.857314
v 1.361089 -0.136519 -1.357153
v 0.949433 0.511776 -1.644467
v 0.491885 0.507904 -1.840657
v 1.348113 0.507904 -1.346313
v -1.930816 0.390043 -0.517652
v -1.930816 0.390044 0.517652
v -1.413708 0.390044 1.413309
v -0.516404 0.383140 1.932891
v 1.924287 -0.102598 0.000000
v 0.517108 0.390043 1.930962
v 1.415732 0.383139 1.413664
v 0.494819 -1.366233 -1.877687
v 0.966212 -1.359784 -1.673528
v 1.378715 -1.366233 -1.367370
v 0.754664 -1.660771 -1.767978
v 1.352432 -1.655053 -1.350356
v 1.913057 -1.645942 0.000000
v 1.873535 -1.366233 -0.510318
v 1.932424 -1.359784 0.000000
v 1.873535 -1.366233 0.510318
v 1.845658 -1.655053 -0.496062
v 1.845659 -1.655052 0.496063
v 0.956528 -1.645942 1.656756
v 1.378716 -1.366233 1.367370
v 0.966212 -1.359784 1.673529
v 0.494819 -1.366232 1.877688
v 1.352432 -1.655052 1.350356
v 0.493226 -1.655052 1.846418
v -0.494819 -1.366232 1.877688
v -0.966212 -1.359784 1.673528
v -1.378716 -1.366233 1.367370
v -0.493227 -1.655052 1.846418
v -1.153782 -1.660771 1.537547
v -1.913057 -1.645942 0.000000
v -1.873535 -1.366233 0.510318
v -1.932424 -1.359784 0.000000
v -1.873535 -1.366233 -0.510318
v -1.845658 -1.655053 0.496062
v -1.845658 -1.655053 -0.496062
v -0.956528 -1.645942 -1.656756
v -1.378716 -1.366233 -1.367369
v -0.966212 -1.359784 -1.673528
v -0.494819 -1.366233 -1.877687
v -1.352432 -1.655053 -1.350356
v -0.493227 -1.655053 -1.846418
v 1.001220 0.373043 -1.734164
v 0.518134 0.078588 -1.955010
v 1.434021 0.078588 -1.426222
v 1.006291 0.066207 -1.742947
v 2.002440 0.373043 -0.000000
v 1.952155 0.078588 -0.528788
v 1.952155 0.078589 0.528788
v 2.012582 0.066207 0.000000
v 1.001220 0.373043 1.734164
v 1.434021 0.078588 1.426222
v 0.518134 0.078588 1.955010
v 1.006291 0.066207 1.742947
v -1.001220 0.373043 1.734163
v -0.518134 0.078589 1.955010
v -1.434022 0.078588 1.426221
v -1.006291 0.066208 1.742947
v -2.002440 0.373043 -0.000000
v -1.952155 0.078588 0.528788
v -1.952155 0.078588 -0.528788
v -2.012582 0.066207 -0.000000
v -1.001220 0.373042 -1.734163
v -1.434021 0.078588 -1.426222
v -0.518134 0.078588 -1.955010
v -1.006291 0.066207 -1.742947
v 0.962143 -0.102599 -1.666481
v -0.962143 -0.102599 -1.666481
v 0.962143 -0.102598 1.666481
v 1.415732 0.383139 -1.413664
v 0.516403 0.383139 -1.932892
v -1.924287 -0.102598 -0.000000
v 1.930816 0.390044 0.517652
v 1.930816 0.390043 -0.517652
v 0.000000 -1.807099 -1.808120
v -0.000000 -0.129583 -1.929861
v -1.738267 0.387803 -1.003589
v 1.686461 -1.364634 0.973679
v -1.565878 -1.807099 0.904061
v -0.000000 -1.656549 1.917853
v -1.738267 0.387804 1.003588
v 0.000000 -1.221611 -1.864461
v 1.686462 -1.364634 -0.973678
v 1.671309 -0.129583 0.964931
v 0.000000 0.387804 2.007177
v 1.756556 0.075372 -1.014148
v 1.660909 -1.656550 -0.958926
v 1.756556 0.075372 1.014148
v -0.000000 0.075372 2.028296
v -1.756556 0.075372 1.014148
v -1.660909 -1.656550 0.958927
v -1.756556 0.075371 -1.014148
v 0.000000 -1.364634 -1.947358
v -0.000000 -1.364633 1.947358
v 0.000000 0.387803 -2.007177
v -0.000000 -1.656550 -1.917853
v 1.565878 -1.807099 -0.904060
v -1.671309 -0.129582 0.964930
v -1.686462 -1.364634 0.973679
v -1.686461 -1.364634 -0.973679
v -1.660909 -1.656550 -0.958926
v 0.000000 0.075372 -2.028296
v 1.660909 -1.656549 0.958927
v 1.738267 0.387803 -1.003589
v 1.653412 0.517201 -0.954597
v 1.671309 -0.129583 -0.964931
v 1.614671 -1.221611 -0.932231
v 1.653411 0.517201 0.954598
v 1.614671 -1.221611 0.932231
v 1.565878 -1.807099 0.904061
v -0.000000 0.517201 1.909195
v -0.000000 -0.129582 1.929861
v -0.000000 -1.221610 1.864462
v -0.000000 -1.807098 1.808121
v -1.653412 0.517201 0.954597
v -1.614671 -1.221611 0.932231
v -1.653412 0.517201 -0.954598
v -1.671309 -0.129583 -0.964930
v -1.614671 -1.221611 -0.932231
v -1.565878 -1.807099 -0.904060
v -0.000000 0.517200 -1.909195
v 1.738267 0.387803 1.003589
vt 0.695783 0.402013
vt 0.751106 0.367449
vt 0.755154 0.426868
vt 0.762044 0.488529
vt 0.692495 0.446773
vt 0.751101 0.532228
vt 0.695780 0.492731
vt 0.700223 0.580567
vt 0.760911 0.583157
vt 0.664146 0.189109
vt 0.731184 0.236060
vt 0.671190 0.249165
vt 0.675736 0.145070
vt 0.727923 0.191015
vt 0.727923 0.095457
vt 0.670420 0.085451
vt 0.665589 0.043093
vt 0.731184 0.055780
vt 0.374636 0.551851
vt 0.427851 0.612793
vt 0.363944 0.595388
vt 0.428270 0.489985
vt 0.368085 0.466403
vt 0.362240 0.410499
vt 0.425896 0.443952
vt 0.243705 0.322364
vt 0.189130 0.342328
vt 0.139487 0.328152
vt 0.102152 0.331480
vt 0.091984 0.309243
vt 0.138183 0.310870
vt 0.213772 0.312838
vt 0.427851 0.355451
vt 0.370621 0.351686
vt 0.200182 0.463772
vt 0.132842 0.415656
vt 0.195884 0.410986
vt 0.187261 0.504333
vt 0.134171 0.455591
vt 0.134076 0.551342
vt 0.194096 0.568428
vt 0.203088 0.622461
vt 0.132665 0.596298
vt 0.193451 0.658289
vt 0.137484 0.636101
vt 0.296936 0.582719
vt 0.239284 0.558144
vt 0.296162 0.538331
vt 0.238528 0.474847
vt 0.294359 0.492663
vt 0.242836 0.636269
vt 0.579585 0.801474
vt 0.579293 0.755438
vt 0.684264 0.756159
vt 0.579000 0.708682
vt 0.684878 0.707570
vt 0.688518 0.803819
vt 0.687096 0.846632
vt 0.584279 0.877311
vt 0.582043 0.843257
vt 0.018172 0.551216
vt 0.017720 0.503095
vt 0.086744 0.549759
vt 0.019070 0.598139
vt 0.090275 0.637575
vt 0.020872 0.640746
vt 0.297704 0.409795
vt 0.241706 0.399666
vt 0.300367 0.377583
vt 0.874396 0.627642
vt 0.931918 0.670967
vt 0.874798 0.666500
vt 0.978489 0.577430
vt 0.948061 0.563295
vt 0.978489 0.463056
vt 0.731304 0.618940
vt 0.836205 0.663046
vt 0.729409 0.660017
vt 0.690343 0.618940
vt 0.685202 0.661084
vt 0.581343 0.623399
vt 0.580197 0.663906
vt 0.543560 0.355099
vt 0.542342 0.395907
vt 0.475293 0.357821
vt 0.019249 0.415693
vt 0.086834 0.458291
vt 0.018265 0.456980
vt 0.872759 0.756244
vt 0.931548 0.819402
vt 0.872567 0.800950
vt 0.874798 0.841195
vt 0.872568 0.710378
vt 0.930982 0.733010
vt 0.835699 0.755568
vt 0.835257 0.801858
vt 0.729362 0.803467
vt 0.836205 0.843184
vt 0.729409 0.846474
vt 0.725783 0.755832
vt 0.729362 0.706819
vt 0.835257 0.708044
vt 0.542517 0.537818
vt 0.542342 0.580367
vt 0.473425 0.536202
vt 0.541908 0.490659
vt 0.473425 0.442362
vt 0.541635 0.442199
vt 0.100538 0.455155
vt 0.086762 0.503021
vt 0.475649 0.325146
vt 0.460710 0.352858
vt 0.473634 0.397355
vt 0.459656 0.394054
vt 0.462949 0.319045
vt 0.101482 0.412811
vt 0.089452 0.417601
vt 0.882581 0.049411
vt 0.939661 0.113717
vt 0.881313 0.088122
vt 0.882391 0.131786
vt 0.874396 0.874121
vt 0.933503 0.878474
vt 0.802749 0.542920
vt 0.804096 0.502719
vt 0.909980 0.504838
vt 0.804091 0.458116
vt 0.910911 0.458526
vt 0.912621 0.546644
vt 0.908224 0.580072
vt 0.731304 0.881187
vt 0.837127 0.876681
vt 0.844546 0.094767
vt 0.843398 0.140865
vt 0.775417 0.097395
vt 0.844857 0.053968
vt 0.777122 0.024347
vt 0.845399 0.020456
vt 0.881667 0.221988
vt 0.941171 0.275674
vt 0.882034 0.262651
vt 0.298127 0.915955
vt 0.239608 0.890706
vt 0.294767 0.877450
vt 0.880840 0.177455
vt 0.939526 0.197014
vt 0.802749 0.365194
vt 0.802392 0.323129
vt 0.908224 0.319045
vt 0.469371 0.879745
vt 0.361964 0.836310
vt 0.467652 0.839078
vt 0.912621 0.362126
vt 0.909980 0.409949
vt 0.804096 0.411367
vt 0.584419 0.582411
vt 0.581715 0.542033
vt 0.652851 0.578791
vt 0.844857 0.236049
vt 0.775417 0.188680
vt 0.843662 0.188978
vt 0.295517 0.787925
vt 0.240085 0.746076
vt 0.297292 0.743077
vt 0.243436 0.691422
vt 0.298127 0.702508
vt 0.295549 0.833776
vt 0.238528 0.810645
vt 0.360254 0.744011
vt 0.361890 0.697556
vt 0.466650 0.695690
vt 0.363625 0.655891
vt 0.469371 0.652331
vt 0.468899 0.743494
vt 0.465760 0.792489
vt 0.361025 0.791516
vt 0.579150 0.400207
vt 0.581720 0.357277
vt 0.648611 0.400895
vt 0.579000 0.447533
vt 0.648608 0.494885
vt 0.579147 0.495884
vt 0.458768 0.440741
vt 0.472007 0.489916
vt 0.458768 0.539352
vt 0.473634 0.577551
vt 0.459656 0.582199
vt 0.459156 0.490654
vt 0.460710 0.617075
vt 0.475293 0.610970
vt 0.774906 0.057047
vt 0.760785 0.094390
vt 0.774684 0.141954
vt 0.760695 0.140744
vt 0.762122 0.052382
vt 0.762577 0.017628
vt 0.649223 0.447341
vt 0.777121 0.276942
vt 0.774906 0.234959
vt 0.090524 0.384473
vt 0.089276 0.595870
vt 0.760785 0.189282
vt 0.762577 0.282032
vt 0.666595 0.583684
vt 0.650681 0.539670
vt 0.663697 0.542922
vt 0.762122 0.237679
vt 0.101299 0.598479
vt 0.100445 0.550237
vt 0.132558 0.502310
vt 0.104155 0.642519
vt 0.666603 0.319045
vt 0.696420 0.357898
vt 0.663704 0.354476
vt 0.104415 0.377583
vt 0.427564 0.396516
vt 0.099820 0.501693
vt 0.427564 0.578292
vt 0.425895 0.534525
vt 0.728605 0.141963
vt 0.729568 0.024952
vt 0.696414 0.539965
vt 0.661042 0.446572
vt 0.662187 0.397693
vt 0.662184 0.496461
vt 0.179185 0.803676
vt 0.184556 0.756388
vt 0.191161 0.802476
vt 0.179185 0.707674
vt 0.172747 0.755798
vt 0.076428 0.282753
vt 0.017720 0.133390
vt 0.042979 0.077019
vt 0.057601 0.077684
vt 0.097800 0.046204
vt 0.073570 0.085253
vt 0.033975 0.149378
vt 0.324813 0.225442
vt 0.299761 0.281996
vt 0.284860 0.281084
vt 0.308664 0.209547
vt 0.134594 0.024108
vt 0.196422 0.017628
vt 0.202974 0.030617
vt 0.250456 0.049507
vt 0.204518 0.048110
vt 0.128867 0.046087
vt 0.054393 0.288699
vt 0.017927 0.238898
vt 0.025857 0.226452
vt 0.018564 0.176072
vt 0.040402 0.216633
vt 0.288140 0.070133
vt 0.324813 0.120116
vt 0.316604 0.132317
vt 0.323876 0.182678
vt 0.302346 0.149176
vt 0.266211 0.076172
vt 0.522429 0.652331
vt 0.518547 0.717519
vt 0.504811 0.717548
vt 0.508693 0.652360
vt 0.020620 0.834182
vt 0.017720 0.766722
vt 0.031422 0.766393
vt 0.034322 0.833853
vt 0.123610 0.887924
vt 0.122944 0.767176
vt 0.136641 0.767049
vt 0.137307 0.887796
vt 0.258379 0.289925
vt 0.521012 0.775734
vt 0.507276 0.775764
vt 0.729568 0.276206
vt 0.360254 0.514273
vt 0.137731 0.384343
vt 0.139397 0.672419
vt 0.299277 0.623100
vt 0.300367 0.656166
vt 0.690343 0.882114
vt 0.504811 0.960686
vt 0.536344 0.899193
vt 0.536344 0.976876
vt 0.933503 0.618940
vt 0.296559 0.448818
vt 0.948061 0.427800
vt 0.959708 0.319045
vt 0.982280 0.427800
vt 0.837127 0.623440
vt 0.022026 0.381720
vt 0.941171 0.039148
vt 0.883331 0.017628
vt 0.802392 0.575747
vt 0.543560 0.614903
vt 0.364502 0.875519
vt 0.845399 0.278965
vt 0.650687 0.359186
vt 0.906954 0.913729
vt 0.906954 0.982372
vt 0.872567 0.914955
vt 0.191161 0.710124
vt 0.661399 0.147284
vt 0.766952 0.526465
vt 0.203088 0.506239
vt 0.766952 0.375152
vt 0.257807 0.038193
vt 0.022092 0.904351
vt 0.035794 0.904021
vt 0.022092 0.708004
vt 0.035794 0.707674
vt 0.123610 0.707802
vt 0.137307 0.707674
vt 0.087330 0.765981
vt 0.084973 0.840765
vt 0.071234 0.840585
vt 0.073591 0.765801
vt 0.087503 0.707854
vt 0.073765 0.707674
vt 0.592525 0.064049
vt 0.616103 0.197460
vt 0.504924 0.283789
vt 0.360254 0.104618
vt 0.464600 0.017628
vt 0.443907 0.283789
vt 0.368749 0.225713
vt 0.532510 0.018232
vt 0.394760 0.046426
vt 0.625959 0.122817
vt 0.581658 0.255595
vt 0.087503 0.899642
vt 0.073765 0.899462
vt 0.522429 0.863908
vt 0.508693 0.863938
vt 0.378762 0.918127
vt 0.378762 0.956943
vt 0.360254 0.953816
vt 0.360254 0.915000
vt 0.172747 0.954320
vt 0.172747 0.916377
vt 0.194731 0.913909
vt 0.194731 0.951853
vt 0.196212 0.839035
vt 0.196212 0.878654
vt 0.172747 0.878550
vt 0.172747 0.838932
vt 0.433687 0.928544
vt 0.448399 0.915000
vt 0.448968 0.921143
vt 0.438867 0.930443
vt 0.748637 0.916443
vt 0.748637 0.948893
vt 0.725783 0.952028
vt 0.725783 0.919578
vt 0.398247 0.915290
vt 0.398247 0.954107
vt 0.020562 0.952091
vt 0.021377 0.965539
vt 0.018535 0.965551
vt 0.017720 0.952103
vt 0.461554 0.950460
vt 0.441817 0.950460
vt 0.444449 0.945490
vt 0.458001 0.945490
vt 0.465622 0.928544
vt 0.460794 0.930443
vt 0.601003 0.934481
vt 0.587404 0.941633
vt 0.587834 0.940165
vt 0.599877 0.933831
vt 0.689889 0.917370
vt 0.689889 0.933408
vt 0.687105 0.933430
vt 0.687105 0.917391
vt 0.021377 0.939606
vt 0.018535 0.939619
vt 0.971656 0.618940
vt 0.971656 0.634469
vt 0.968943 0.634690
vt 0.968943 0.619161
vt 0.968943 0.685727
vt 0.968943 0.670487
vt 0.971206 0.669945
vt 0.971206 0.685186
vt 0.071234 0.952194
vt 0.072022 0.938022
vt 0.084867 0.934898
vt 0.085037 0.952194
vt 0.579000 0.931058
vt 0.587404 0.917370
vt 0.587834 0.918678
vt 0.580392 0.930800
vt 0.601003 0.919485
vt 0.599877 0.920552
vt 0.123193 0.938959
vt 0.122944 0.925579
vt 0.134056 0.923179
vt 0.134056 0.940475
vt 0.942394 0.928686
vt 0.943921 0.914814
vt 0.955209 0.913729
vt 0.955209 0.930084
vt 0.792146 0.916443
vt 0.805202 0.918664
vt 0.805202 0.933864
vt 0.792146 0.941037
vt 0.784077 0.930270
vt 0.649840 0.930027
vt 0.651665 0.941799
vt 0.639210 0.945238
vt 0.637409 0.932981
vt 0.639330 0.917370
vt 0.636443 0.932736
vt 0.638202 0.918437
vt 0.135542 0.923831
vt 0.135542 0.939672
vt 0.085950 0.935776
vt 0.086105 0.951618
vt 0.806701 0.934718
vt 0.792447 0.942550
vt 0.806701 0.918123
vt 0.651665 0.918817
vt 0.946952 0.208397
vt 0.967975 0.145110
vt 0.967609 0.207580
vt 0.967308 0.268687
vt 0.970114 0.323793
vt 0.949584 0.330551
vt 0.972785 0.368258
vt 0.952936 0.376602
vt 0.948523 0.272446
vt 0.292356 0.885718
vt 0.299486 0.821503
vt 0.322191 0.876041
vt 0.030215 0.805942
vt 0.024446 0.742636
vt 0.052283 0.744136
vt 0.025447 0.677726
vt 0.051951 0.676203
vt 0.052019 0.810449
vt 0.951792 0.940482
vt 0.973595 0.889201
vt 0.973595 0.952368
vt 0.956298 0.663215
vt 0.960580 0.723904
vt 0.937368 0.727486
vt 0.935815 0.627692
vt 0.958880 0.602735
vt 0.964061 0.546341
vt 0.943149 0.539396
vt 0.953251 0.488376
vt 0.071985 0.362474
vt 0.082832 0.295528
vt 0.092728 0.357490
vt 0.136540 0.459611
vt 0.169528 0.492323
vt 0.152211 0.504080
vt 0.089344 0.421488
vt 0.111041 0.413302
vt 0.118216 0.469458
vt 0.788044 0.837991
vt 0.794102 0.777963
vt 0.809872 0.831696
vt 0.972785 0.029966
vt 0.970424 0.084877
vt 0.949876 0.080934
vt 0.947913 0.143533
vt 0.954233 0.023555
vt 0.812029 0.884383
vt 0.830985 0.876229
vt 0.091494 0.105196
vt 0.137361 0.066610
vt 0.111469 0.112494
vt 0.092570 0.168847
vt 0.083187 0.231225
vt 0.061924 0.229332
vt 0.061065 0.297186
vt 0.069865 0.163698
vt 0.772362 0.587911
vt 0.809120 0.537962
vt 0.794683 0.592439
vt 0.786217 0.653921
vt 0.786861 0.717428
vt 0.764141 0.719291
vt 0.772246 0.782104
vt 0.765354 0.652603
vt 0.891302 0.206160
vt 0.889911 0.145099
vt 0.909005 0.143550
vt 0.908938 0.298341
vt 0.891359 0.265083
vt 0.908483 0.208242
vt 0.649258 0.432743
vt 0.655498 0.396313
vt 0.682663 0.437680
vt 0.612958 0.351596
vt 0.112995 0.804871
vt 0.116164 0.861067
vt 0.098281 0.868379
vt 0.152716 0.023555
vt 0.118392 0.056520
vt 0.093337 0.810042
vt 0.111191 0.742753
vt 0.093427 0.744375
vt 0.094140 0.676652
vt 0.896233 0.664208
vt 0.882388 0.726358
vt 0.879878 0.664185
vt 0.882835 0.601480
vt 0.887919 0.543127
vt 0.904685 0.536959
vt 0.810073 0.485964
vt 0.787932 0.531432
vt 0.897682 0.598459
vt 0.426904 0.757696
vt 0.452719 0.692082
vt 0.458537 0.755068
vt 0.467806 0.812739
vt 0.493114 0.860614
vt 0.463460 0.869284
vt 0.408861 0.916394
vt 0.408861 0.976445
vt 0.387534 0.957428
vt 0.442996 0.818131
vt 0.116164 0.560262
vt 0.114064 0.616237
vt 0.096100 0.611273
vt 0.112545 0.678282
vt 0.096678 0.552091
vt 0.318858 0.470823
vt 0.312982 0.415245
vt 0.338641 0.458965
vt 0.293860 0.423913
vt 0.274030 0.366712
vt 0.898337 0.728753
vt 0.732442 0.652972
vt 0.739547 0.590259
vt 0.754600 0.533805
vt 0.392535 0.310962
vt 0.423336 0.249780
vt 0.428102 0.312516
vt 0.440159 0.123040
vt 0.428102 0.185243
vt 0.392535 0.183279
vt 0.387534 0.247976
vt 0.405903 0.119871
vt 0.915939 0.024621
vt 0.911398 0.081190
vt 0.599573 0.410234
vt 0.593932 0.224770
vt 0.599738 0.289532
vt 0.564626 0.293314
vt 0.577654 0.355496
vt 0.559727 0.226803
vt 0.564626 0.161716
vt 0.612958 0.104314
vt 0.599738 0.161611
vt 0.589282 0.836442
vt 0.569844 0.779951
vt 0.599952 0.780722
vt 0.559727 0.717636
vt 0.590298 0.718173
vt 0.620241 0.838013
vt 0.915585 0.842091
vt 0.905401 0.788977
vt 0.953361 0.840005
vt 0.944072 0.787458
vt 0.791869 0.140027
vt 0.785067 0.207950
vt 0.752188 0.139252
vt 0.745107 0.273793
vt 0.746122 0.206366
vt 0.760031 0.077325
vt 0.799232 0.076533
vt 0.771990 0.024376
vt 0.812286 0.023555
vt 0.218421 0.235916
vt 0.223714 0.168440
vt 0.255576 0.233885
vt 0.274030 0.107871
vt 0.262126 0.167962
vt 0.262126 0.301472
vt 0.223714 0.304823
vt 0.235694 0.370035
vt 0.442996 0.558467
vt 0.426904 0.623996
vt 0.408115 0.556730
vt 0.387534 0.689195
vt 0.393208 0.621679
vt 0.054012 0.610645
vt 0.055377 0.551190
vt 0.056274 0.870680
vt 0.101715 0.916821
vt 0.059605 0.918899
vt 0.252916 0.694225
vt 0.255762 0.763288
vt 0.218421 0.696805
vt 0.235385 0.829747
vt 0.221529 0.764614
vt 0.025188 0.229626
vt 0.024446 0.297562
vt 0.034737 0.163214
vt 0.054314 0.422310
vt 0.035269 0.363033
vt 0.760360 0.392221
vt 0.750337 0.336841
vt 0.789296 0.338863
vt 0.785120 0.275596
vt 0.800082 0.394277
vt 0.620008 0.530980
vt 0.666208 0.493364
vt 0.641304 0.537970
vt 0.622416 0.593164
vt 0.613324 0.654339
vt 0.590597 0.653299
vt 0.612481 0.716812
vt 0.601973 0.589200
vt 0.655498 0.067383
vt 0.636945 0.111419
vt 0.661488 0.023555
vt 0.682663 0.035744
vt 0.634572 0.057856
vt 0.964929 0.780674
vt 0.975554 0.829643
vt 0.841018 0.033633
vt 0.829910 0.084504
vt 0.816643 0.143967
vt 0.816512 0.208807
vt 0.815170 0.273443
vt 0.622330 0.777004
vt 0.639936 0.831809
vt 0.666208 0.877178
vt 0.646074 0.886018
vt 0.450932 0.188522
vt 0.448335 0.249534
vt 0.464252 0.130240
vt 0.483335 0.077945
vt 0.462395 0.068215
vt 0.489628 0.023555
vt 0.820550 0.333819
vt 0.824496 0.387063
vt 0.841018 0.428398
vt 0.810936 0.438854
vt 0.292356 0.517933
vt 0.299486 0.572673
vt 0.269946 0.566857
vt 0.026098 0.615161
vt 0.467806 0.564467
vt 0.458537 0.627393
vt 0.422209 0.691782
vt 0.463460 0.499247
vt 0.622599 0.286243
vt 0.636945 0.344552
vt 0.619108 0.225045
vt 0.622599 0.165374
vt 0.312982 0.068010
vt 0.294792 0.114403
vt 0.318858 0.023555
vt 0.338641 0.034831
vt 0.293860 0.059307
vt 0.733081 0.206253
vt 0.737351 0.142607
vt 0.483335 0.407634
vt 0.510834 0.440314
vt 0.489628 0.452137
vt 0.440159 0.369863
vt 0.464252 0.362448
vt 0.462395 0.417198
vt 0.450932 0.308723
vt 0.255762 0.626927
vt 0.287247 0.630150
vt 0.278522 0.694023
vt 0.287247 0.759129
vt 0.269946 0.828379
vt 0.283079 0.171200
vt 0.278632 0.234282
vt 0.283080 0.298898
vt 0.294792 0.360608
vt 0.902899 0.889201
vt 0.902899 0.958638
vt 0.879878 0.941079
vt 0.975554 0.498475
vt 0.169528 0.035071
vt 0.830985 0.494299
vt 0.482961 0.967310
vt 0.457754 0.948344
vt 0.482961 0.916394
vt 0.914464 0.485964
vt 0.731556 0.717969
vt 0.577654 0.104410
vt 0.235694 0.108471
vt 0.646414 0.484790
vt 0.888704 0.784296
vt 0.510834 0.036253
vt 0.322191 0.526067
vt 0.493114 0.509398
vt 0.731556 0.270395
vn 0.1779 0.3329 -0.9260
vn 0.5428 0.3425 -0.7668
vn 0.7247 0.3221 -0.6091
vn 0.8909 0.3329 -0.3089
vn 0.9355 0.3425 0.0866
vn 0.8898 0.3221 0.3231
vn 0.7130 0.3329 0.6171
vn 0.3927 0.3425 0.8535
vn 0.1151 0.3203 0.9403
vn -0.3589 0.3522 0.8644
vn -0.7118 0.3323 0.6187
vn -0.2440 0.9120 0.3298
vn -0.1184 0.7477 0.6534
vn 0.0580 0.9071 -0.4170
vn 0.1823 0.9389 -0.2919
vn -0.8792 0.3374 0.3365
vn -0.8788 0.3351 0.3398
vn -0.8797 0.3401 0.3324
vn -0.9355 0.3425 -0.0866
vn -0.8898 0.3221 -0.3231
vn -0.7130 0.3329 -0.6171
vn -0.3927 0.3425 -0.8535
vn -0.1651 0.3221 -0.9322
vn -0.5944 -0.1455 -0.7909
vn -0.7660 -0.2211 -0.6036
vn -0.3817 -0.2266 -0.8961
vn -0.3816 -0.2264 -0.8962
vn -0.3860 -0.2325 -0.8927
vn -0.6071 -0.0617 -0.7922
vn -0.6019 -0.0587 -0.7964
vn -0.6031 -0.0594 -0.7955
vn -0.7835 -0.0592 -0.6186
vn -0.3812 -0.0624 -0.9224
vn -0.1426 -0.0585 -0.9881
vn -0.1437 -0.0590 -0.9879
vn -0.1422 -0.0584 -0.9881
vn -0.7855 0.0648 -0.6154
vn -0.3927 0.0669 -0.9172
vn -0.9822 -0.1455 0.1193
vn -0.9131 -0.1796 0.3660
vn -0.9669 -0.2266 -0.1175
vn -0.9669 -0.2264 -0.1177
vn -0.9661 -0.2325 -0.1121
vn -0.9896 -0.0617 0.1297
vn -0.9907 -0.0587 0.1230
vn -0.9904 -0.0594 0.1245
vn -0.9275 -0.0592 0.3692
vn -0.9894 -0.0624 -0.1311
vn -0.9270 -0.0585 -0.3705
vn -0.9273 -0.0590 -0.3696
vn -0.9269 -0.0584 -0.3709
vn -0.9257 0.0648 0.3726
vn -0.9906 0.0656 -0.1204
vn -0.3811 -0.2259 0.8965
vn -0.1389 -0.1259 0.9823
vn -0.7343 -0.2176 0.6431
vn -0.3825 -0.0617 0.9219
vn -0.3888 -0.0587 0.9194
vn -0.3874 -0.0594 0.9200
vn -0.1440 -0.0592 0.9878
vn -0.6082 -0.0624 0.7913
vn -0.7843 -0.0586 0.6176
vn -0.7837 -0.0590 0.6183
vn -0.7846 -0.0584 0.6172
vn -0.1389 0.0657 0.9881
vn -0.5995 0.0656 0.7977
vn -0.8031 -0.5006 -0.3231
vn -0.8046 -0.4967 -0.3253
vn -0.8052 -0.4953 -0.3261
vn -0.8659 -0.4903 0.0989
vn -0.8032 -0.5005 0.3231
vn -0.8046 -0.4967 0.3253
vn -0.8026 -0.5019 0.3223
vn -0.8532 -0.5110 0.1048
vn -0.8532 -0.5110 -0.1048
vn 0.5858 -0.2259 0.7783
vn 0.7812 -0.1259 0.6114
vn 0.1407 -0.2221 0.9648
vn 0.1405 -0.2219 0.9649
vn 0.1487 -0.2309 0.9615
vn 0.6071 -0.0617 0.7922
vn 0.6019 -0.0587 0.7964
vn 0.6031 -0.0594 0.7955
vn 0.7835 -0.0592 0.6186
vn 0.3812 -0.0624 0.9224
vn 0.1426 -0.0585 0.9881
vn 0.1437 -0.0590 0.9879
vn 0.1422 -0.0584 0.9881
vn 0.7863 0.0657 0.6144
vn 0.3910 0.0656 0.9180
vn 0.9670 -0.2259 -0.1182
vn 0.9201 -0.1259 -0.3708
vn 0.9059 -0.2221 0.3606
vn 0.9059 -0.2219 0.3608
vn 0.9071 -0.2309 0.3520
vn 0.9896 -0.0617 -0.1297
vn 0.9907 -0.0587 -0.1230
vn 0.9904 -0.0594 -0.1245
vn 0.9275 -0.0592 -0.3692
vn 0.9894 -0.0624 0.1311
vn 0.9269 -0.0585 0.3706
vn 0.9274 -0.0590 0.3695
vn 0.9269 -0.0584 0.3709
vn 0.9257 0.0648 -0.3726
vn 0.9906 0.0656 0.1204
vn 0.3853 -0.1802 -0.9051
vn 0.1398 -0.2211 -0.9652
vn 0.7652 -0.2221 -0.6042
vn 0.7654 -0.2219 -0.6041
vn 0.7584 -0.2309 -0.6096
vn 0.3825 -0.0617 -0.9219
vn 0.3888 -0.0587 -0.9194
vn 0.3874 -0.0594 -0.9200
vn 0.1440 -0.0592 -0.9878
vn 0.6082 -0.0624 -0.7913
vn 0.7844 -0.0585 -0.6175
vn 0.7836 -0.0590 -0.6184
vn 0.7846 -0.0584 -0.6172
vn 0.1389 0.0657 -0.9881
vn 0.5980 0.0669 -0.7987
vn -0.6814 -0.5005 0.5340
vn -0.6840 -0.4967 0.5342
vn -0.6850 -0.4953 0.5342
vn -0.3473 -0.4903 0.7994
vn -0.1217 -0.5006 0.8571
vn -0.1206 -0.4967 0.8595
vn -0.1222 -0.5019 0.8562
vn -0.3358 -0.5110 0.7913
vn -0.5174 -0.5110 0.6865
vn 0.1217 -0.5006 0.8571
vn 0.1206 -0.4967 0.8595
vn 0.1202 -0.4953 0.8604
vn 0.5186 -0.4903 0.7004
vn 0.6814 -0.5005 0.5340
vn 0.6840 -0.4967 0.5342
vn 0.6804 -0.5019 0.5339
vn 0.5174 -0.5110 0.6865
vn 0.3358 -0.5110 0.7913
vn 0.3847 0.0607 -0.9211
vn 0.3918 0.0662 -0.9177
vn 0.3837 0.0599 -0.9215
vn 0.6062 0.0599 -0.7931
vn 0.9900 0.0605 -0.1276
vn 0.9905 0.0650 -0.1212
vn 0.9899 0.0599 -0.1284
vn 0.9899 0.0599 0.1284
vn 0.6054 0.0606 0.7936
vn 0.5988 0.0662 0.7982
vn 0.6062 0.0599 0.7931
vn 0.3837 0.0599 0.9215
vn -0.3847 0.0607 0.9211
vn -0.3918 0.0662 0.9177
vn -0.3837 0.0599 0.9215
vn -0.6062 0.0599 0.7931
vn -0.9900 0.0605 0.1277
vn -0.9905 0.0650 0.1212
vn -0.9899 0.0599 0.1284
vn -0.9899 0.0599 -0.1284
vn -0.6055 0.0605 -0.7935
vn -0.6002 0.0650 -0.7972
vn -0.6062 0.0599 -0.7931
vn -0.3837 0.0599 -0.9215
vn 0.8032 -0.5005 0.3231
vn 0.8046 -0.4967 0.3253
vn 0.8052 -0.4953 0.3261
vn 0.8659 -0.4903 -0.0989
vn 0.8031 -0.5006 -0.3231
vn 0.8046 -0.4967 -0.3253
vn 0.8026 -0.5019 -0.3223
vn 0.8532 -0.5110 -0.1048
vn 0.8532 -0.5110 0.1048
vn -0.5866 0.1610 -0.7937
vn -0.7588 0.2176 -0.6139
vn -0.3666 0.2027 -0.9080
vn -0.1362 0.1934 -0.9716
vn -0.3940 0.1610 -0.9049
vn -0.9807 0.1610 0.1112
vn -0.9110 0.2176 0.3502
vn -0.9697 0.2027 -0.1365
vn -0.9095 0.1934 -0.3679
vn -0.9807 0.1610 -0.1112
vn -0.3940 0.1610 0.9049
vn -0.1523 0.2176 0.9641
vn -0.6031 0.2027 0.7715
vn -0.7734 0.1934 0.6038
vn -0.5866 0.1610 0.7937
vn 0.5866 0.1610 0.7937
vn 0.7588 0.2176 0.6139
vn 0.3666 0.2027 0.9080
vn 0.1362 0.1934 0.9716
vn 0.3941 0.1610 0.9049
vn 0.9807 0.1610 -0.1112
vn 0.9110 0.2176 -0.3502
vn 0.9697 0.2027 0.1365
vn 0.9095 0.1934 0.3679
vn 0.9807 0.1610 0.1112
vn 0.3941 0.1610 -0.9049
vn 0.1523 0.2176 -0.9641
vn 0.6031 0.2027 -0.7715
vn 0.7734 0.1934 -0.6038
vn 0.5866 0.1610 -0.7937
vn -0.1217 -0.5005 -0.8571
vn -0.1206 -0.4967 -0.8595
vn -0.1202 -0.4953 -0.8604
vn -0.5186 -0.4903 -0.7004
vn -0.6814 -0.5005 -0.5340
vn -0.6840 -0.4967 -0.5342
vn -0.6804 -0.5019 -0.5339
vn -0.5174 -0.5110 -0.6865
vn -0.3358 -0.5110 -0.7913
vn 0.6814 -0.5005 -0.5340
vn 0.6840 -0.4967 -0.5342
vn 0.6850 -0.4953 -0.5342
vn 0.3473 -0.4903 -0.7994
vn 0.1217 -0.5005 -0.8571
vn 0.1206 -0.4967 -0.8595
vn 0.1222 -0.5019 -0.8562
vn 0.3358 -0.5110 -0.7913
vn 0.5174 -0.5110 -0.6865
vn 0.2077 0.9252 -0.3177
vn 0.0154 0.9361 -0.3514
vn 0.5452 0.8382 -0.0137
vn 0.6070 0.7645 -0.2171
vn -0.3901 0.9071 0.1583
vn -0.1312 0.9905 0.0411
vn -0.5452 0.8382 0.0137
vn -0.5941 0.7871 0.1659
vn 0.1312 0.9905 -0.0411
vn 0.2607 0.8382 -0.4790
vn 0.1155 0.7645 -0.6342
vn -0.0580 0.9071 0.4170
vn -0.0300 0.9905 0.1342
vn 0.2845 0.8382 0.4653
vn 0.4915 0.7645 0.4171
vn -0.3321 0.9071 -0.2587
vn -0.1012 0.9905 -0.0931
vn -0.2845 0.8382 -0.4653
vn -0.4915 0.7645 -0.4171
vn 0.3468 0.8979 0.2710
vn 0.1012 0.9905 0.0931
vn 0.5376 -0.0003 0.8432
vn -0.8019 -0.0020 -0.5975
vn 0.6586 0.0063 -0.7525
vn -0.3789 0.9252 -0.0210
vn -0.3121 0.9361 0.1624
vn 0.3032 0.9529 0.0015
vn 0.7959 0.0019 0.6054
vn -0.1713 0.9252 -0.3387
vn -0.2966 0.9361 -0.1891
vn -0.2077 0.9252 0.3177
vn -0.0154 0.9361 0.3514
vn 0.1645 0.9350 0.3142
vn 0.3143 0.9304 0.1885
vn 0.3641 0.2725 -0.8906
vn 0.1467 0.3066 -0.9405
vn 0.5776 0.3211 -0.7505
vn 0.7412 0.3066 -0.5973
vn 0.9533 0.2725 -0.1300
vn 0.8878 0.3066 -0.3432
vn 0.9388 0.3211 0.1249
vn 0.8878 0.3066 0.3432
vn 0.5892 0.2725 0.7606
vn 0.7412 0.3066 0.5973
vn 0.3612 0.3211 0.8755
vn 0.1431 0.3542 0.9242
vn -0.3588 0.3521 0.8644
vn -0.1501 0.2539 0.9555
vn -0.5892 0.2725 0.7606
vn -0.7396 0.3129 0.5959
vn -0.3059 0.5468 0.7794
vn 0.1412 0.9852 -0.0973
vn -0.9533 0.2725 0.1300
vn -0.8787 0.3347 0.3404
vn -0.9388 0.3211 -0.1249
vn -0.8878 0.3066 -0.3432
vn -0.5892 0.2725 -0.7606
vn -0.7412 0.3066 -0.5973
vn -0.3612 0.3211 -0.8755
vn -0.1467 0.3066 -0.9405
vn -0.7584 -0.2309 -0.6096
vn -0.3811 -0.2259 -0.8965
vn -0.1389 -0.1259 -0.9823
vn -0.6082 -0.0624 -0.7913
vn -0.7846 -0.0584 -0.6172
vn -0.3888 -0.0587 -0.9194
vn -0.1440 -0.0592 -0.9878
vn -0.5995 0.0656 -0.7977
vn -0.1389 0.0657 -0.9881
vn -0.1395 0.0653 -0.9881
vn -0.1440 0.0622 -0.9876
vn -0.9240 -0.2176 0.3144
vn -0.9670 -0.2259 -0.1182
vn -0.9201 -0.1259 -0.3708
vn -0.9894 -0.0624 0.1311
vn -0.9269 -0.0584 0.3709
vn -0.9907 -0.0587 -0.1230
vn -0.9275 -0.0592 -0.3692
vn -0.9906 0.0656 0.1204
vn -0.9257 0.0648 -0.3726
vn -0.9259 0.0645 -0.3722
vn -0.9273 0.0621 -0.3690
vn -0.3860 -0.2325 0.8927
vn -0.5944 -0.1455 0.7909
vn -0.7736 -0.1796 0.6078
vn -0.3812 -0.0624 0.9224
vn -0.1422 -0.0584 0.9881
vn -0.6019 -0.0587 0.7964
vn -0.7835 -0.0592 0.6186
vn -0.3927 0.0669 0.9172
vn -0.7855 0.0648 0.6154
vn -0.7853 0.0645 0.6158
vn -0.7832 0.0621 0.6186
vn -0.8659 -0.4903 -0.0989
vn -0.8026 -0.5019 -0.3223
vn -0.8052 -0.4953 0.3261
vn 0.5801 -0.2325 0.7806
vn 0.3878 -0.1455 0.9102
vn 0.1398 -0.2211 0.9652
vn 0.6082 -0.0624 0.7913
vn 0.7846 -0.0584 0.6172
vn 0.3888 -0.0587 0.9194
vn 0.1440 -0.0592 0.9878
vn 0.5980 0.0669 0.7987
vn 0.1402 0.0648 0.9880
vn 0.1406 0.0645 0.9880
vn 0.1441 0.0621 0.9876
vn 0.9661 -0.2325 -0.1121
vn 0.9821 -0.1455 0.1193
vn 0.9058 -0.2211 0.3615
vn 0.9894 -0.0624 -0.1311
vn 0.9269 -0.0584 -0.3709
vn 0.9907 -0.0587 0.1230
vn 0.9275 -0.0592 0.3692
vn 0.9906 0.0656 -0.1204
vn 0.9257 0.0648 0.3726
vn 0.9259 0.0645 0.3722
vn 0.9273 0.0621 0.3690
vn 0.4276 -0.2170 -0.8775
vn 0.1018 -0.1793 -0.9785
vn 0.5944 -0.1455 -0.7909
vn 0.7660 -0.2211 -0.6036
vn 0.3812 -0.0624 -0.9224
vn 0.1422 -0.0584 -0.9881
vn 0.6019 -0.0587 -0.7964
vn 0.7835 -0.0592 -0.6186
vn 0.3927 0.0669 -0.9172
vn 0.7863 0.0657 -0.6144
vn 0.7860 0.0653 -0.6148
vn 0.7833 0.0622 -0.6185
vn -0.5186 -0.4903 0.7004
vn -0.6804 -0.5019 0.5339
vn -0.1202 -0.4953 0.8604
vn 0.3473 -0.4903 0.7994
vn 0.1222 -0.5019 0.8562
vn 0.6850 -0.4953 0.5342
vn 0.1446 0.0618 -0.9876
vn 0.7830 0.0618 -0.6190
vn 0.9275 0.0618 -0.3686
vn 0.9275 0.0618 0.3686
vn 0.7830 0.0618 0.6190
vn 0.1446 0.0618 0.9876
vn -0.1446 0.0618 0.9876
vn -0.7830 0.0618 0.6190
vn -0.9275 0.0618 0.3686
vn -0.9275 0.0618 -0.3686
vn -0.7830 0.0618 -0.6190
vn -0.1446 0.0618 -0.9876
vn 0.8659 -0.4903 0.0989
vn 0.8026 -0.5019 0.3223
vn 0.8052 -0.4953 -0.3261
vn -0.6031 0.2027 -0.7715
vn -0.7734 0.1934 -0.6038
vn -0.1523 0.2176 -0.9641
vn -0.9697 0.2027 0.1365
vn -0.9095 0.1934 0.3679
vn -0.9110 0.2176 -0.3502
vn -0.3666 0.2027 0.9080
vn -0.1362 0.1934 0.9716
vn -0.7588 0.2176 0.6139
vn 0.6031 0.2027 0.7715
vn 0.7734 0.1934 0.6038
vn 0.1523 0.2176 0.9641
vn 0.9697 0.2027 -0.1365
vn 0.9095 0.1934 -0.3679
vn 0.9110 0.2176 0.3502
vn 0.3666 0.2027 -0.9080
vn 0.1362 0.1934 -0.9716
vn 0.7588 0.2176 -0.6139
vn -0.3473 -0.4903 -0.7994
vn -0.1222 -0.5019 -0.8562
vn -0.6850 -0.4953 -0.5342
vn 0.5186 -0.4903 -0.7004
vn 0.6804 -0.5019 -0.5339
vn 0.1202 -0.4953 -0.8604
vn 0.0531 0.9976 -0.0436
vn 0.6447 0.6756 0.3577
vn 0.6868 0.6718 -0.2774
vn -0.1829 0.9644 -0.1912
vn -0.6447 0.6756 -0.3577
vn 0.3693 0.9273 -0.0617
vn 0.1829 0.9644 0.1912
vn 0.6321 0.6756 -0.3794
vn 0.1032 0.6718 -0.7335
vn -0.2571 0.9644 0.0627
vn 0.0112 0.6632 0.7483
vn 0.5836 0.6718 0.4561
vn 0.0742 0.9644 -0.2540
vn -0.0125 0.6756 -0.7371
vn -0.5836 0.6718 -0.4561
vn -0.0742 0.9644 0.2540
vn -0.5038 0.0006 -0.8638
vn -1.0000 -0.0053 0.0046
vn 0.1163 0.0043 -0.9932
vn -0.4960 -0.0059 0.8683
vn -0.9184 -0.0063 0.3956
vn -0.0044 1.0000 0.0033
vn -0.0046 1.0000 0.0043
vn -0.0028 1.0000 0.0000
vn -0.0008 1.0000 -0.0033
vn -0.0020 1.0000 -0.0021
vn 0.0768 0.9970 0.0042
vn 0.0231 0.9997 -0.0093
vn -0.0780 0.9967 -0.0241
vn -0.0181 0.9967 -0.0796
vn -0.0599 0.9967 0.0555
vn 0.0172 0.9961 0.0869
vn -0.1166 -0.0043 0.9932
vn 0.9999 0.0053 -0.0109
vn 0.5871 0.7812 0.2124
vn 0.9495 -0.3135 -0.0166
vn -0.0003 -0.9749 -0.2227
vn -0.0564 -0.2223 0.9733
vn -0.9496 -0.2891 -0.1210
vn -0.5866 0.7962 0.1479
vn 0.5866 -0.7962 -0.1479
vn 0.0003 0.9749 0.2227
vn -0.5871 -0.7812 -0.2124
vn 0.9496 0.2891 0.1210
vn -0.9495 0.3135 0.0166
vn 0.1112 -0.9188 -0.3788
vn 0.9708 -0.1722 -0.1669
vn -0.8873 -0.3472 -0.3037
vn -0.0161 -0.1814 0.9833
vn -0.6546 0.7545 -0.0467
vn 0.3111 0.5668 0.7629
vn 0.7506 -0.2080 0.6272
vn 0.1385 -0.8563 0.4975
vn -0.6793 -0.4823 0.5531
vn -0.5727 0.3972 0.7171
vn 0.4965 0.8671 0.0407
vn -0.1222 0.4967 0.8592
vn -0.1214 0.4942 0.8608
vn -0.1211 0.4932 0.8614
vn -0.5201 0.4880 0.7009
vn -0.6824 0.4977 0.5354
vn -0.5193 0.5056 0.6890
vn -0.3371 0.5056 0.7942
vn -0.7105 -0.4279 0.5586
vn -0.7139 -0.4229 0.5581
vn -0.7149 -0.4215 0.5579
vn -0.3693 -0.4172 0.8304
vn -0.1291 -0.4293 0.8939
vn -0.3438 -0.4606 0.8183
vn -0.5368 -0.4606 0.7069
vn 0.1296 -0.5841 -0.8013
vn 0.2696 -0.7135 -0.6467
vn 0.1641 -0.5156 -0.8409
vn 0.5208 -0.5062 -0.6874
vn 0.6210 -0.6104 -0.4917
vn -0.6295 0.5989 -0.4950
vn -0.6313 0.5968 -0.4953
vn -0.6321 0.5958 -0.4955
vn -0.1209 0.6006 -0.7904
vn -0.1216 0.5992 -0.7913
vn -0.1193 0.6039 -0.7881
vn -0.3124 0.5953 -0.7403
vn -0.1187 0.6052 -0.7871
vn -0.4777 0.5958 -0.6457
vn 0.6831 0.4967 0.5355
vn 0.6848 0.4942 0.5356
vn 0.6854 0.4932 0.5356
vn 0.3470 0.4880 0.8009
vn 0.1225 0.4977 0.8587
vn 0.3371 0.5056 0.7942
vn 0.5193 0.5056 0.6890
vn -0.7434 0.5989 0.2977
vn -0.7446 0.5967 0.2991
vn -0.7451 0.5958 0.2997
vn -0.7973 0.5966 -0.0911
vn -0.7972 0.5968 -0.0911
vn -0.7979 0.5959 -0.0909
vn -0.7430 0.5997 -0.2972
vn -0.7980 0.5958 -0.0908
vn -0.7980 0.5958 0.0908
vn 0.8053 0.4967 -0.3238
vn 0.8062 0.4942 -0.3252
vn 0.8066 0.4932 -0.3258
vn 0.8671 0.4880 0.1000
vn 0.8049 0.4977 0.3232
vn 0.8563 0.5056 0.1052
vn 0.8563 0.5056 -0.1052
vn -0.1296 -0.5841 0.8013
vn -0.3349 -0.5062 0.7947
vn -0.1154 -0.6104 0.7837
vn -0.4252 -0.7136 0.5568
vn -0.6462 -0.5156 0.5626
vn -0.4776 0.5966 0.6450
vn -0.4775 0.5968 0.6448
vn -0.4776 0.5960 0.6454
vn -0.6288 0.5997 0.4949
vn -0.4777 0.5958 0.6457
vn -0.3130 0.6018 0.7348
vn -0.3126 0.5971 0.7388
vn -0.3124 0.5953 0.7403
vn -0.1187 0.6052 0.7871
vn 0.1222 0.4967 -0.8593
vn 0.1215 0.4943 -0.8608
vn 0.1211 0.4932 -0.8614
vn 0.5201 0.4880 -0.7009
vn 0.6824 0.4977 -0.5354
vn 0.5193 0.5056 -0.6890
vn 0.3371 0.5056 -0.7942
vn 0.8390 -0.4279 0.3360
vn 0.8403 -0.4229 0.3392
vn 0.8406 -0.4215 0.3401
vn 0.9038 -0.4172 -0.0953
vn 0.8387 -0.4293 -0.3351
vn 0.8806 -0.4606 -0.1114
vn 0.8806 -0.4606 0.1114
vn 0.3199 0.5964 0.7362
vn 0.3197 0.5968 0.7360
vn 0.3201 0.5960 0.7364
vn 0.1141 0.5997 0.7920
vn 0.3203 0.5958 0.7365
vn 0.4799 0.6018 0.6384
vn 0.4835 0.5971 0.6401
vn 0.4849 0.5953 0.6407
vn 0.6223 0.6052 0.4964
vn 0.1384 -0.0996 -0.9854
vn 0.3973 0.0087 -0.9176
vn 0.5864 -0.1631 -0.7935
vn 0.7837 -0.1007 -0.6130
vn 0.7812 -0.1063 -0.6152
vn 0.7807 -0.1073 -0.6156
vn 0.9860 -0.1017 -0.1321
vn 0.9227 -0.1007 -0.3722
vn 0.9234 -0.1062 -0.3689
vn 0.9225 -0.0996 -0.3728
vn 0.9913 -0.0671 -0.1135
vn 0.9913 -0.0671 0.1135
vn 0.9227 -0.1007 0.3722
vn 0.9234 -0.1062 0.3689
vn 0.9235 -0.1073 0.3683
vn 0.6074 -0.1017 0.7879
vn 0.7837 -0.1007 0.6130
vn 0.7812 -0.1062 0.6152
vn 0.7841 -0.0996 0.6125
vn 0.5940 -0.0671 0.8017
vn 0.3973 -0.0671 0.9152
vn 0.1390 -0.1007 0.9852
vn 0.1422 -0.1062 0.9841
vn 0.1428 -0.1073 0.9839
vn -0.4207 -0.0999 0.9017
vn -0.1390 -0.1007 0.9852
vn -0.1422 -0.1062 0.9841
vn -0.1384 -0.0996 0.9854
vn -0.3940 -0.1631 0.9045
vn -0.5960 0.0087 0.8029
vn -0.7389 -0.1909 0.6462
vn -0.9860 -0.1017 0.1321
vn -0.9227 -0.1007 0.3722
vn -0.9234 -0.1062 0.3689
vn -0.9225 -0.0996 0.3728
vn -0.9913 -0.0671 0.1135
vn -0.9913 -0.0671 -0.1135
vn -0.9227 -0.1007 -0.3722
vn -0.9234 -0.1062 -0.3689
vn -0.9235 -0.1073 -0.3683
vn -0.6074 -0.1017 -0.7879
vn -0.7837 -0.1007 -0.6130
vn -0.7812 -0.1062 -0.6152
vn -0.7841 -0.0996 -0.6125
vn -0.5940 -0.0671 -0.8017
vn -0.3973 -0.0671 -0.9152
vn -0.1390 -0.1006 -0.9852
vn -0.1422 -0.1062 -0.9841
vn -0.1428 -0.1073 -0.9839
vn 0.3989 0.0328 -0.9164
vn 0.1398 0.0676 -0.9879
vn 0.1422 0.0717 -0.9872
vn 0.1427 0.0725 -0.9871
vn 0.6092 0.0692 -0.7900
vn 0.7856 0.0676 -0.6150
vn 0.7839 0.0717 -0.6168
vn 0.7860 0.0668 -0.6147
vn 0.5942 0.0328 -0.8037
vn 0.9931 0.0328 -0.1127
vn 0.9255 0.0681 -0.3726
vn 0.9266 0.0753 -0.3684
vn 0.9268 0.0766 -0.3676
vn 0.9883 0.0725 0.1344
vn 0.9255 0.0681 0.3726
vn 0.9266 0.0753 0.3684
vn 0.9253 0.0668 0.3733
vn 0.9931 0.0328 0.1127
vn 0.5942 0.0328 0.8037
vn 0.7856 0.0676 0.6150
vn 0.7839 0.0717 0.6167
vn 0.7835 0.0725 0.6171
vn 0.3778 0.0725 0.9231
vn 0.1401 0.0681 0.9878
vn 0.1443 0.0753 0.9867
vn 0.1393 0.0668 0.9880
vn 0.3989 0.0328 0.9164
vn -0.3989 0.0328 0.9164
vn -0.1398 0.0675 0.9879
vn -0.1422 0.0717 0.9872
vn -0.1427 0.0725 0.9871
vn -0.6105 0.0725 0.7887
vn -0.7854 0.0681 0.6152
vn -0.7823 0.0753 0.6183
vn -0.7860 0.0668 0.6147
vn -0.5942 0.0328 0.8037
vn -0.9931 0.0328 0.1127
vn -0.9255 0.0681 0.3726
vn -0.9266 0.0753 0.3684
vn -0.9268 0.0766 0.3676
vn -0.9883 0.0725 -0.1344
vn -0.9255 0.0681 -0.3726
vn -0.9266 0.0753 -0.3684
vn -0.9253 0.0668 -0.3733
vn -0.9931 0.0328 -0.1127
vn -0.5942 0.0328 -0.8037
vn -0.7854 0.0681 -0.6152
vn -0.7823 0.0753 -0.6183
vn -0.7818 0.0766 -0.6189
vn -0.3796 0.0692 -0.9226
vn -0.1398 0.0675 -0.9879
vn -0.1422 0.0717 -0.9872
vn -0.1393 0.0668 -0.9880
vn -0.3989 0.0328 -0.9164
vn -0.8053 0.4967 0.3238
vn -0.8062 0.4943 0.3252
vn -0.8066 0.4932 0.3258
vn -0.8671 0.4880 -0.1000
vn -0.8049 0.4977 -0.3232
vn -0.8563 0.5056 -0.1052
vn -0.8563 0.5056 0.1052
vn -0.6292 -0.5841 -0.5128
vn -0.4839 -0.6004 -0.6367
vn -0.6210 -0.6104 -0.4917
vn -0.3104 -0.6074 -0.7312
vn -0.3097 -0.6023 -0.7358
vn -0.3095 -0.6004 -0.7374
vn -0.1153 -0.6104 -0.7837
vn 0.7105 -0.4279 -0.5586
vn 0.7139 -0.4230 -0.5581
vn 0.7149 -0.4215 -0.5579
vn 0.3693 -0.4172 -0.8304
vn 0.1291 -0.4293 -0.8939
vn 0.3438 -0.4606 -0.8183
vn 0.5368 -0.4606 -0.7069
vn -0.6831 0.4967 -0.5355
vn -0.6848 0.4942 -0.5356
vn -0.6854 0.4932 -0.5356
vn -0.3470 0.4880 -0.8009
vn -0.1225 0.4977 -0.8587
vn -0.3371 0.5056 -0.7942
vn -0.5193 0.5056 -0.6890
vn 0.6292 -0.5841 0.5128
vn 0.4839 -0.6004 0.6367
vn 0.6210 -0.6104 0.4917
vn 0.3104 -0.6074 0.7312
vn 0.3097 -0.6022 0.7358
vn 0.3095 -0.6004 0.7374
vn 0.1154 -0.6104 0.7837
vn -0.1285 -0.4279 -0.8946
vn -0.1264 -0.4229 -0.8973
vn -0.1258 -0.4215 -0.8981
vn -0.5345 -0.4172 -0.7350
vn -0.7096 -0.4293 -0.5587
vn -0.5368 -0.4606 -0.7069
vn -0.3438 -0.4606 -0.8183
vn 0.1285 -0.4279 0.8947
vn 0.1264 -0.4230 0.8973
vn 0.1258 -0.4215 0.8981
vn 0.5345 -0.4172 0.7350
vn 0.7096 -0.4293 0.5587
vn 0.5368 -0.4606 0.7069
vn 0.3438 -0.4606 0.8183
vn -0.7587 -0.5841 0.2885
vn -0.7933 -0.6004 0.1007
vn -0.7363 -0.6104 0.2919
vn -0.7885 -0.6074 -0.0968
vn -0.7921 -0.6023 -0.0997
vn -0.7933 -0.6004 -0.1007
vn -0.7363 -0.6104 -0.2919
vn 0.6240 0.6006 -0.4999
vn 0.6245 0.5992 -0.5010
vn 0.6228 0.6039 -0.4974
vn 0.4849 0.5953 -0.6407
vn 0.6223 0.6052 -0.4964
vn 0.3130 0.6018 -0.7348
vn 0.3126 0.5971 -0.7388
vn 0.3124 0.5953 -0.7403
vn 0.1187 0.6052 -0.7871
vn 0.7587 -0.5841 -0.2885
vn 0.7933 -0.6004 -0.1007
vn 0.7363 -0.6104 -0.2919
vn 0.7885 -0.6074 0.0968
vn 0.7921 -0.6023 0.0997
vn 0.7933 -0.6004 0.1007
vn 0.7363 -0.6104 0.2919
vn -0.8390 -0.4279 -0.3360
vn -0.8403 -0.4229 -0.3392
vn -0.8406 -0.4215 -0.3401
vn -0.9038 -0.4172 0.0953
vn -0.8387 -0.4293 0.3351
vn -0.8806 -0.4606 0.1114
vn -0.8806 -0.4606 -0.1114
vn 0.7434 0.5989 -0.2977
vn 0.7446 0.5967 -0.2991
vn 0.7451 0.5958 -0.2997
vn 0.7975 0.5965 0.0910
vn 0.7972 0.5968 0.0911
vn 0.7978 0.5960 0.0909
vn 0.7430 0.5997 0.2972
vn 0.7980 0.5958 0.0908
vn 0.7980 0.5958 -0.0908
vn -0.3470 0.4880 0.8009
vn -0.1225 0.4977 0.8587
vn -0.6854 0.4932 0.5356
vn -0.5345 -0.4172 0.7350
vn -0.7096 -0.4293 0.5587
vn -0.1258 -0.4215 0.8981
vn 0.6292 -0.5841 -0.5128
vn 0.4588 -0.6075 -0.6484
vn -0.4775 0.5968 -0.6448
vn -0.6288 0.5997 -0.4949
vn -0.3131 0.6036 -0.7332
vn 0.5201 0.4880 0.7009
vn 0.6824 0.4977 0.5354
vn 0.1211 0.4932 0.8614
vn -0.7972 0.5968 0.0911
vn -0.7430 0.5997 0.2972
vn -0.7451 0.5958 -0.2997
vn 0.8671 0.4880 -0.1000
vn 0.8049 0.4977 -0.3232
vn 0.8066 0.4932 0.3258
vn -0.6292 -0.5841 0.5128
vn -0.3321 -0.6075 0.7216
vn -0.1216 0.5992 0.7913
vn -0.6321 0.5958 0.4955
vn -0.3131 0.6036 0.7332
vn 0.3470 0.4880 -0.8009
vn 0.1225 0.4977 -0.8587
vn 0.6854 0.4932 -0.5356
vn 0.9038 -0.4172 0.0953
vn 0.8387 -0.4293 0.3351
vn 0.8406 -0.4215 -0.3401
vn 0.6245 0.5992 0.5010
vn 0.1130 0.5958 0.7951
vn 0.4784 0.6036 0.6378
vn 0.1902 -0.1909 -0.9630
vn 0.5705 -0.0999 -0.8152
vn 0.7841 -0.0996 -0.6125
vn 0.9235 -0.1073 -0.3683
vn 0.9860 -0.1017 0.1321
vn 0.9225 -0.0996 0.3728
vn 0.7807 -0.1073 0.6156
vn 0.3786 -0.1017 0.9200
vn 0.1384 -0.0996 0.9854
vn -0.1428 -0.1073 0.9839
vn -0.7841 -0.0996 0.6125
vn -0.9235 -0.1073 0.3683
vn -0.9860 -0.1017 -0.1321
vn -0.9225 -0.0996 -0.3728
vn -0.7807 -0.1073 -0.6156
vn -0.3786 -0.1017 -0.9200
vn -0.1384 -0.0996 -0.9854
vn 0.3796 0.0692 -0.9226
vn 0.1393 0.0668 -0.9880
vn 0.7835 0.0725 -0.6171
vn 0.9883 0.0725 -0.1344
vn 0.9253 0.0668 -0.3733
vn 0.9268 0.0766 0.3676
vn 0.6092 0.0692 0.7900
vn 0.7860 0.0668 0.6147
vn 0.1451 0.0766 0.9865
vn -0.3796 0.0692 0.9226
vn -0.1393 0.0668 0.9880
vn -0.7818 0.0766 0.6189
vn -0.9883 0.0725 0.1344
vn -0.9253 0.0668 0.3733
vn -0.9268 0.0766 -0.3676
vn -0.6105 0.0725 -0.7887
vn -0.7860 0.0668 -0.6147
vn -0.1427 0.0725 -0.9871
vn -0.8671 0.4880 0.1000
vn -0.8049 0.4977 0.3232
vn -0.8066 0.4932 -0.3258
vn -0.1296 -0.5841 -0.8013
vn -0.4766 -0.6092 -0.6339
vn -0.3107 -0.6092 -0.7296
vn 0.5345 -0.4172 -0.7350
vn 0.7096 -0.4293 -0.5587
vn 0.1258 -0.4215 -0.8981
vn -0.5201 0.4880 -0.7009
vn -0.6824 0.4977 -0.5354
vn -0.1211 0.4932 -0.8614
vn 0.1296 -0.5841 0.8013
vn 0.4766 -0.6092 0.6339
vn 0.3107 -0.6092 0.7296
vn -0.3693 -0.4172 -0.8304
vn -0.1291 -0.4293 -0.8939
vn -0.7149 -0.4215 -0.5579
vn 0.3693 -0.4172 0.8304
vn 0.1291 -0.4293 0.8939
vn 0.7149 -0.4215 0.5579
vn -0.7587 -0.5841 -0.2885
vn -0.7872 -0.6092 0.0958
vn -0.7872 -0.6092 -0.0958
vn 0.1216 0.5992 -0.7913
vn 0.4784 0.6036 -0.6378
vn 0.3131 0.6036 -0.7332
vn 0.7587 -0.5841 0.2885
vn 0.7872 -0.6092 -0.0958
vn 0.7872 -0.6092 0.0958
vn -0.9038 -0.4172 -0.0953
vn -0.8387 -0.4293 -0.3351
vn -0.8406 -0.4215 0.3401
vn 0.7972 0.5968 -0.0911
vn 0.7430 0.5997 -0.2972
vn 0.7451 0.5958 0.2997
usemtl Material.003
s 1
f 120/1/1 155/2/1 137/3/1
f 138/4/2 118/5/2 137/3/2
f 193/6/3 119/7/3 138/4/3
f 72/8/4 193/6/4 131/9/4
f 132/10/5 70/11/5 131/12/5
f 195/13/6 71/14/6 132/10/6
f 127/15/7 195/13/7 140/16/7
f 141/17/8 125/18/8 140/16/8
f 197/19/9 126/20/9 141/21/9
f 114/22/10 197/19/10 2/23/10
f 184/24/11 115/25/11 2/23/11
f 184/26/12 2/27/12 1/28/12
f 197/29/13 183/30/13 1/28/13
f 1/28/14 183/30/14 129/31/14
f 1/28/15 187/32/15 184/26/15
f 93/33/16 184/24/17 134/34/18
f 135/35/19 91/36/19 134/37/19
f 199/38/20 92/39/20 135/35/20
f 124/40/21 199/38/21 143/41/21
f 144/42/22 122/43/22 143/41/22
f 155/44/23 123/45/23 144/42/23
f 3/46/24 161/47/24 4/48/24
f 4/48/25 160/49/25 215/50/25
f 3/46/26 162/51/27 161/47/28
f 6/52/29 7/53/30 9/54/31
f 9/54/32 214/55/32 213/56/32
f 117/57/33 10/58/33 6/52/33
f 10/58/34 168/59/35 8/60/36
f 12/61/37 212/62/37 89/63/37
f 11/64/38 90/65/38 13/66/38
f 14/67/39 159/68/39 15/69/39
f 15/70/40 198/71/40 166/72/40
f 14/67/41 160/49/42 159/68/43
f 17/73/44 18/74/45 20/75/46
f 20/76/47 211/77/47 182/78/47
f 128/79/48 21/80/48 17/81/48
f 21/80/49 214/55/50 19/82/51
f 23/83/52 210/84/52 86/85/52
f 22/86/53 87/87/53 24/88/53
f 26/89/54 196/90/54 27/91/54
f 27/91/55 196/90/55 209/92/55
f 28/93/56 198/71/56 158/94/56
f 29/95/57 30/96/58 32/97/59
f 32/97/60 208/98/60 207/99/60
f 25/100/61 33/101/61 29/95/61
f 33/101/62 211/77/63 31/102/64
f 35/103/65 206/104/65 83/105/65
f 34/106/66 84/107/66 36/108/66
f 99/109/67 181/110/68 87/87/69
f 85/111/70 86/85/70 98/112/70
f 98/112/71 179/113/72 177/114/73
f 98/112/74 100/115/74 85/111/74
f 100/116/75 99/109/75 85/117/75
f 37/118/76 194/119/76 38/120/76
f 38/120/77 194/119/77 205/121/77
f 39/122/78 196/90/79 157/123/80
f 40/124/81 41/125/82 43/126/83
f 43/126/84 204/127/84 172/128/84
f 121/129/85 44/130/85 40/124/85
f 44/131/86 208/98/87 42/132/88
f 46/133/89 203/134/89 80/135/89
f 45/136/90 81/137/90 47/138/90
f 48/139/91 192/140/91 49/141/91
f 49/142/92 192/143/92 180/144/92
f 50/145/93 194/119/94 156/146/95
f 51/147/96 52/148/97 54/149/98
f 54/150/99 202/151/99 201/152/99
f 94/153/100 55/154/100 51/147/100
f 55/154/101 204/127/102 53/155/103
f 57/156/104 200/157/104 77/158/104
f 56/159/105 78/160/105 58/161/105
f 59/162/106 153/163/106 60/164/106
f 60/164/107 162/165/107 163/166/107
f 61/167/108 192/143/109 154/168/110
f 62/169/111 63/170/112 65/171/113
f 65/171/114 168/172/114 164/173/114
f 113/174/115 66/175/115 62/169/115
f 66/175/116 202/151/117 64/176/118
f 68/177/119 217/178/119 74/179/119
f 67/180/120 75/181/120 69/182/120
f 102/183/121 179/113/122 84/107/123
f 82/184/124 83/105/124 101/185/124
f 101/185/125 167/186/126 176/187/127
f 101/185/128 103/188/128 82/184/128
f 103/188/129 102/183/129 82/184/129
f 105/189/130 167/186/131 81/190/132
f 79/191/133 80/135/133 104/192/133
f 104/192/134 171/193/135 175/194/136
f 104/192/137 106/195/137 79/191/137
f 106/195/138 105/196/138 79/191/138
f 67/180/139 74/179/140 73/197/141
f 75/181/142 67/180/142 73/197/142
f 56/159/143 77/198/144 76/199/145
f 78/160/146 56/159/146 76/199/146
f 45/136/147 80/135/148 79/191/149
f 81/137/150 45/136/150 79/191/150
f 34/106/151 83/105/152 82/184/153
f 84/107/154 34/106/154 82/184/154
f 22/86/155 86/200/156 85/117/157
f 87/87/158 22/86/158 85/117/158
f 11/64/159 89/63/160 88/201/161
f 90/65/162 11/64/162 88/201/162
f 108/202/163 171/193/164 78/160/165
f 76/199/166 77/198/166 107/203/166
f 107/204/167 216/205/168 174/206/169
f 107/203/170 109/207/170 76/199/170
f 109/207/171 108/202/171 76/199/171
f 97/208/172 95/209/172 122/43/172
f 95/209/173 169/210/173 124/40/173
f 122/43/174 123/45/174 96/211/174
f 96/212/175 173/213/175 218/214/175
f 96/211/176 97/208/176 122/43/176
f 100/116/177 98/215/177 91/36/177
f 98/112/178 219/216/178 93/33/178
f 91/36/179 92/39/179 99/109/179
f 99/109/180 169/210/180 178/217/180
f 99/109/181 100/116/181 91/36/181
f 103/188/182 101/185/182 114/22/182
f 101/185/183 220/218/183 116/219/183
f 114/22/184 115/25/184 102/183/184
f 102/183/185 219/216/185 177/114/185
f 102/183/186 103/188/186 114/22/186
f 106/195/187 104/192/187 125/18/187
f 104/192/188 165/220/188 127/15/188
f 125/18/189 126/221/189 105/196/189
f 105/189/190 220/218/190 176/187/190
f 105/196/191 106/195/191 125/18/191
f 109/207/192 107/203/192 70/11/192
f 107/204/193 221/222/193 72/8/193
f 70/11/194 71/14/194 108/202/194
f 108/202/195 165/220/195 175/194/195
f 108/202/196 109/207/196 70/11/196
f 112/223/197 110/224/197 118/5/197
f 110/224/198 173/213/198 120/1/198
f 118/5/199 119/7/199 111/225/199
f 111/225/200 221/222/200 174/206/200
f 111/225/201 112/223/201 118/5/201
f 96/226/202 170/227/203 90/228/204
f 88/201/205 89/63/205 95/209/205
f 95/209/206 181/110/207 178/217/208
f 95/209/209 97/208/209 88/201/209
f 97/208/210 96/211/210 88/201/210
f 111/225/211 216/205/212 75/181/213
f 73/197/214 74/179/214 110/224/214
f 110/229/215 170/227/216 218/230/217
f 110/224/218 112/223/218 73/197/218
f 112/223/219 111/225/219 73/197/219
f 129/31/220 187/32/220 1/28/220
f 129/31/221 183/30/221 147/231/221
f 132/232/222 131/233/222 130/234/222
f 131/233/223 185/235/223 130/234/223
f 130/234/224 185/235/224 145/236/224
f 130/234/225 188/237/225 132/232/225
f 135/238/226 134/239/226 133/240/226
f 134/239/227 184/26/227 133/240/227
f 133/240/228 190/241/228 135/238/228
f 138/242/229 137/243/229 136/244/229
f 137/243/230 186/245/230 136/244/230
f 136/244/231 186/245/231 150/246/231
f 136/244/232 149/247/232 138/242/232
f 141/248/233 140/249/233 139/250/233
f 140/249/234 189/251/234 139/250/234
f 139/250/235 189/251/235 148/252/235
f 139/250/236 147/231/236 141/248/236
f 144/253/237 143/254/237 142/255/237
f 143/254/238 191/256/238 142/255/238
f 142/255/239 191/256/239 152/257/239
f 142/255/240 151/258/240 144/253/240
f 151/259/241 152/260/241 224/261/241 232/262/241
f 148/263/242 188/264/242 230/265/242 228/266/242
f 146/267/243 129/268/243 222/269/243 227/270/243
f 145/236/244 188/237/244 130/234/244
f 145/236/245 185/235/245 149/247/245
f 146/271/246 190/241/246 133/240/246
f 152/260/247 190/272/247 231/273/247 224/261/247
f 148/252/248 147/231/248 139/250/248
f 148/252/249 189/251/249 188/237/249
f 150/246/250 149/247/250 136/244/250
f 150/246/251 186/245/251 151/258/251
f 152/257/252 151/258/252 142/255/252
f 152/257/253 191/256/253 190/241/253
f 118/5/254 120/1/254 137/3/254
f 120/1/255 173/213/255 155/2/255
f 138/4/256 119/7/256 118/5/256
f 193/6/257 221/222/257 119/7/257
f 70/11/258 72/274/258 131/12/258
f 72/8/259 221/222/259 193/6/259
f 132/10/260 71/14/260 70/11/260
f 195/13/261 165/220/261 71/14/261
f 125/18/262 127/15/262 140/16/262
f 127/15/263 165/220/263 195/13/263
f 141/17/264 126/221/264 125/18/264
f 197/19/265 220/218/265 126/20/265
f 114/22/10 116/219/266 197/19/10
f 116/219/267 220/218/267 197/19/267
f 2/23/268 115/25/268 114/22/268
f 184/24/269 219/216/269 115/25/269
f 2/23/270 197/19/270 1/275/270
f 184/26/271 187/32/271 146/271/271
f 91/36/272 93/276/272 134/37/272
f 93/33/16 219/216/273 184/24/17
f 135/35/274 92/39/274 91/36/274
f 199/38/275 169/210/275 92/39/275
f 122/43/276 124/40/276 143/41/276
f 124/40/277 169/210/277 199/38/277
f 144/42/278 123/45/278 122/43/278
f 155/44/279 173/277/279 123/45/279
f 4/48/280 161/47/280 160/49/280
f 3/46/26 5/278/281 162/51/27
f 5/278/282 163/279/282 162/51/282
f 117/57/283 6/52/29 9/54/31
f 9/54/284 7/53/284 214/55/284
f 6/52/285 10/58/285 8/60/285
f 10/58/34 164/280/286 168/59/35
f 11/64/159 12/61/287 89/63/160
f 13/281/288 90/282/289 217/283/290
f 15/70/291 159/284/291 198/71/291
f 14/67/41 16/285/292 160/49/42
f 16/285/293 215/50/293 160/49/293
f 128/286/294 17/287/44 20/288/46
f 20/76/295 18/289/295 211/77/295
f 17/81/296 21/80/296 19/82/296
f 21/80/49 213/56/297 214/55/50
f 22/86/155 23/290/298 86/200/156
f 24/88/299 87/87/300 212/62/301
f 26/89/302 158/94/302 196/90/302
f 26/89/303 28/93/303 158/94/303
f 28/93/304 166/72/304 198/71/304
f 25/100/305 29/95/57 32/97/59
f 32/97/306 30/96/306 208/98/306
f 29/95/307 33/101/307 31/102/307
f 33/101/62 182/78/308 211/77/63
f 34/106/151 35/103/309 83/105/152
f 36/108/310 84/107/311 210/84/312
f 85/117/313 99/109/313 87/87/313
f 99/109/67 178/217/314 181/110/68
f 98/112/71 86/85/315 179/113/72
f 37/118/316 157/291/316 194/119/316
f 37/118/317 39/292/317 157/291/317
f 39/122/78 209/92/318 196/90/79
f 121/129/319 40/124/81 43/126/83
f 43/126/320 41/125/320 204/127/320
f 40/124/321 44/130/321 42/293/321
f 44/131/86 207/99/322 208/98/87
f 45/136/147 46/133/323 80/135/148
f 47/294/324 81/190/325 206/104/326
f 48/139/327 156/146/327 192/140/327
f 48/139/328 50/145/328 156/146/328
f 50/145/93 205/121/329 194/119/94
f 94/153/330 51/147/96 54/149/98
f 54/150/331 52/295/331 202/151/331
f 51/147/332 55/154/332 53/155/332
f 55/154/101 172/128/333 204/127/102
f 56/159/143 57/296/334 77/198/144
f 58/161/335 78/160/336 203/134/337
f 59/162/338 154/168/338 153/163/338
f 60/164/339 153/163/339 162/165/339
f 59/162/340 61/167/340 154/168/340
f 61/167/108 180/144/341 192/143/109
f 113/174/342 62/169/111 65/171/113
f 65/171/343 63/170/343 168/172/343
f 62/169/344 66/175/344 64/176/344
f 66/175/116 201/152/345 202/151/117
f 67/180/139 68/177/346 74/179/140
f 69/182/347 75/181/348 200/157/349
f 82/184/350 102/183/350 84/107/350
f 102/183/121 177/114/351 179/113/122
f 101/185/125 83/105/352 167/186/126
f 79/191/353 105/196/353 81/137/353
f 105/189/130 176/187/354 167/186/131
f 104/192/134 80/135/355 171/193/135
f 74/179/356 217/178/356 170/297/356
f 216/205/357 200/157/349 75/181/348
f 77/158/358 200/157/358 216/205/358
f 171/193/359 203/134/337 78/160/336
f 80/135/360 203/134/360 171/193/360
f 167/186/361 206/104/326 81/190/325
f 83/105/362 206/104/362 167/186/362
f 179/113/363 210/84/312 84/107/311
f 86/85/364 210/84/364 179/113/364
f 181/110/365 212/62/301 87/87/300
f 89/63/366 212/62/366 181/110/366
f 170/298/367 217/299/290 90/300/289
f 76/199/368 108/202/368 78/160/368
f 108/202/163 175/194/369 171/193/164
f 107/204/167 77/158/370 216/205/168
f 122/43/371 95/209/371 124/40/371
f 95/209/372 178/217/372 169/210/372
f 96/211/373 123/45/373 173/277/373
f 91/36/374 98/215/374 93/276/374
f 98/112/375 177/114/375 219/216/375
f 99/109/376 92/39/376 169/210/376
f 114/22/377 101/185/377 116/219/377
f 101/185/378 176/187/378 220/218/378
f 102/183/379 115/25/379 219/216/379
f 125/18/380 104/192/380 127/15/380
f 104/192/381 175/194/381 165/220/381
f 105/189/382 126/20/382 220/218/382
f 70/11/383 107/203/383 72/274/383
f 107/204/384 174/206/384 221/222/384
f 108/202/385 71/14/385 165/220/385
f 118/5/386 110/224/386 120/1/386
f 110/224/387 218/214/387 173/213/387
f 111/225/388 119/7/388 221/222/388
f 88/201/389 96/211/389 90/65/389
f 96/226/202 218/230/390 170/227/203
f 95/209/206 89/63/391 181/110/207
f 73/197/392 111/225/392 75/181/392
f 111/225/211 174/206/393 216/205/212
f 110/229/215 74/301/394 170/227/216
f 187/32/395 129/31/395 146/271/395
f 189/302/396 195/13/396 132/10/396
f 131/9/397 193/6/397 185/303/397
f 132/232/398 188/237/398 189/251/398
f 191/304/399 199/38/399 135/35/399
f 133/240/400 184/26/400 146/271/400
f 135/238/401 190/241/401 191/256/401
f 185/303/402 193/6/402 138/4/402
f 137/3/403 155/2/403 186/305/403
f 138/242/404 149/247/404 185/235/404
f 183/30/405 197/29/405 141/248/405
f 140/16/406 195/13/406 189/302/406
f 141/248/407 147/231/407 183/30/407
f 186/245/408 155/306/408 144/253/408
f 143/41/409 199/38/409 191/304/409
f 144/253/410 151/258/410 186/245/410
f 147/307/411 148/263/411 228/266/411 223/308/411
f 188/264/412 145/309/412 226/310/412 230/265/412
f 129/268/413 147/311/413 223/312/413 222/269/413
f 149/313/414 150/314/414 225/315/414 229/316/414
f 145/317/415 149/313/415 229/316/415 226/318/415
f 226/319/416 225/320/417 224/321/418
f 222/322/419 228/323/420 224/321/418
f 228/323/420 226/319/416 224/321/418
f 224/321/421 231/324/421 227/325/421
f 224/321/422 227/325/422 222/322/422
f 230/326/423 226/319/423 228/323/423
f 223/327/424 228/323/424 222/322/424
f 229/328/425 225/320/425 226/319/425
f 232/329/426 224/321/426 225/320/426
f 150/314/427 151/330/427 232/331/427 225/315/427
f 190/272/428 146/332/428 227/333/428 231/273/428
f 233/334/429 234/335/429 236/336/429 235/337/429
f 235/338/430 236/339/430 238/340/430 237/341/430
f 237/342/431 238/343/431 240/344/431 239/345/431
f 236/346/432 234/347/432 244/348/432 243/349/432
f 239/350/433 240/351/433 242/352/433 241/353/433
f 241/354/434 242/355/434 234/335/434 233/334/434
f 244/356/435 247/357/435 252/358/435 249/359/435
f 240/360/432 238/361/432 245/362/432 246/363/432
f 242/364/432 240/360/432 246/363/432 247/365/432
f 238/361/432 236/346/432 243/349/432 245/362/432
f 234/347/432 242/364/432 247/365/432 244/348/432
f 252/366/432 251/367/432 256/368/432 257/369/432
f 246/370/436 245/371/436 250/372/436 251/373/436
f 243/374/437 244/356/437 249/359/437 248/375/437
f 247/376/438 246/377/438 251/378/438 252/379/438
f 245/380/439 243/381/439 248/382/439 250/383/439
f 256/384/440 255/385/440 263/386/440 265/387/440
f 250/388/432 248/389/432 253/390/432 255/391/432
f 249/392/432 252/366/432 257/369/432 254/393/432
f 251/367/432 250/388/432 255/391/432 256/368/432
f 248/389/432 249/392/432 254/393/432 253/390/432
f 255/394/441 253/395/441 259/396/441 263/397/441
f 257/398/442 256/399/442 265/400/442 267/401/442
f 258/402/443 261/403/443 266/404/443 264/405/443 262/406/443
f 254/407/444 257/408/444 267/409/444 260/410/444
f 259/411/445 260/410/445 261/412/445 258/413/445
f 263/397/446 259/396/446 258/414/446 262/415/446
f 265/387/447 263/386/447 262/416/447 264/417/447
f 267/418/448 265/419/448 264/405/448 266/404/448
f 260/420/449 267/418/449 266/404/449 261/403/449
f 253/421/450 254/407/450 260/410/450 259/411/450
usemtl Material.004
f 361/422/451 448/423/452 295/424/453
f 294/425/454 296/426/454 363/427/454
f 363/427/455 451/428/455 434/429/455
f 363/427/456 362/430/456 294/425/456
f 362/430/457 361/422/457 294/425/457
f 392/431/458 433/432/459 298/433/460
f 290/434/461 297/435/461 391/436/461
f 391/436/462 447/437/462 424/438/462
f 391/436/463 393/439/463 290/434/463
f 393/440/464 392/441/464 290/442/464
f 327/443/465 410/444/465 431/445/465
f 327/443/466 347/446/466 326/447/466
f 431/445/467 347/446/467 327/443/467
f 347/446/468 328/448/468 326/447/468
f 348/449/469 422/450/469 328/448/469
f 324/451/470 452/452/471 277/453/472
f 278/454/473 456/455/474 430/456/475
f 278/454/476 398/457/476 276/458/476
f 430/456/475 325/459/477 278/454/473
f 398/457/478 324/451/478 276/458/478
f 356/460/479 444/461/480 306/462/481
f 305/463/482 307/464/482 358/465/482
f 358/465/483 448/423/483 429/466/483
f 358/465/484 357/467/484 305/463/484
f 357/468/485 356/460/485 305/469/485
f 338/470/486 450/471/487 288/472/488
f 287/473/489 289/474/490 337/475/491
f 337/475/492 452/452/492 412/476/492
f 337/475/491 394/477/493 287/473/489
f 394/477/494 338/470/494 287/473/494
f 350/478/495 442/479/496 317/480/497
f 316/481/498 318/482/498 352/483/498
f 352/483/499 444/461/499 413/484/499
f 352/483/500 351/485/500 316/481/500
f 351/485/501 350/478/501 316/481/501
f 292/486/502 449/487/502 415/488/502
f 292/486/503 365/489/503 291/490/503
f 415/488/504 364/491/504 292/486/504
f 365/492/505 293/493/505 291/494/505
f 365/492/506 426/495/506 293/493/506
f 299/496/507 301/497/508 339/498/509
f 339/499/510 450/471/510 416/500/510
f 339/498/509 390/501/511 299/496/507
f 390/501/512 300/502/513 299/496/514
f 340/503/515 420/504/515 300/502/515
f 344/505/516 417/506/517 330/507/518
f 329/508/519 331/509/519 346/510/519
f 346/511/520 442/479/520 418/512/520
f 346/510/521 345/513/521 329/508/521
f 345/513/522 344/505/522 329/508/522
f 384/514/523 419/515/524 320/516/525
f 341/517/526 319/518/526 383/519/526
f 383/520/527 441/521/527 421/522/527
f 383/519/528 385/523/528 341/517/528
f 385/523/529 384/514/529 341/517/529
f 310/524/530 312/525/531 342/526/532
f 342/526/533 446/527/533 420/504/533
f 342/526/532 386/528/534 310/524/530
f 386/529/535 311/530/536 310/531/537
f 343/532/538 457/533/538 311/530/538
f 344/505/539 431/445/539 428/534/539
f 344/505/540 345/513/540 347/446/540
f 345/513/541 346/510/541 347/446/541
f 346/510/542 422/450/543 348/449/544
f 349/535/545 353/536/545 350/478/545
f 350/478/546 422/537/547 418/512/548
f 350/478/549 351/485/549 349/535/549
f 351/485/550 352/483/550 349/535/550
f 352/538/551 438/539/552 354/540/553
f 355/541/554 359/542/554 356/543/554
f 356/543/555 438/539/556 413/544/557
f 356/543/558 357/545/558 355/541/558
f 357/467/559 358/465/559 355/546/559
f 358/465/560 415/488/561 360/547/562
f 365/489/563 364/491/563 361/422/563
f 361/422/564 415/488/565 429/466/566
f 361/422/567 362/430/567 365/489/567
f 362/430/568 363/427/568 365/489/568
f 363/548/569 426/495/569 365/492/569
f 366/549/570 370/550/570 367/551/570
f 367/551/571 426/495/572 434/552/573
f 367/551/574 368/553/574 366/549/574
f 368/553/575 369/554/575 366/549/575
f 369/554/576 436/555/577 371/556/578
f 372/557/579 376/558/579 373/559/579
f 373/559/580 436/560/581 435/561/582
f 373/559/583 374/562/583 372/557/583
f 374/563/584 375/564/584 372/565/584
f 375/564/585 431/445/586 377/566/587
f 381/567/588 379/568/588 378/569/588
f 379/568/589 430/570/590 406/571/591
f 378/569/592 405/572/592 380/573/592
f 380/573/593 439/574/594 421/575/595
f 380/573/596 381/567/596 378/569/596
f 385/576/597 383/577/597 382/578/597
f 383/577/598 439/579/599 409/580/600
f 382/578/601 408/581/601 384/582/601
f 384/582/602 457/533/603 423/583/604
f 384/582/605 385/576/605 382/578/605
f 389/584/606 387/585/606 386/586/606
f 387/585/607 457/587/608 343/588/609
f 386/528/610 342/526/610 388/589/610
f 388/589/611 420/504/612 424/438/613
f 388/589/614 389/590/614 386/528/614
f 393/439/615 391/436/615 390/501/615
f 391/436/616 420/504/617 340/503/618
f 390/501/619 339/498/619 392/591/619
f 392/591/620 416/592/621 425/593/622
f 392/591/623 393/439/623 390/501/623
f 397/594/624 395/595/624 394/596/624
f 395/595/625 416/597/626 338/598/627
f 394/477/628 337/475/628 396/599/628
f 396/599/629 412/476/630 427/600/631
f 396/599/632 397/601/632 394/477/632
f 401/602/633 399/603/633 398/457/633
f 399/603/634 412/476/635 324/451/636
f 398/604/637 325/605/637 400/606/637
f 400/606/638 430/570/639 437/607/640
f 400/606/641 401/608/641 398/604/641
f 367/609/642 451/610/643 283/611/644
f 282/612/645 284/613/645 369/614/645
f 369/614/646 454/615/646 435/561/646
f 369/614/647 368/616/647 282/612/647
f 368/616/648 367/609/648 282/612/648
f 269/617/649 455/618/649 436/555/649
f 269/617/650 372/619/650 268/620/650
f 436/555/651 376/621/651 269/617/651
f 372/565/652 270/622/653 268/623/654
f 377/566/655 431/445/655 270/622/655
f 380/573/656 441/624/657 333/625/658
f 402/626/659 332/627/659 379/568/659
f 379/568/660 411/628/660 437/607/660
f 379/568/661 381/567/661 402/626/661
f 381/567/662 380/573/662 402/626/662
f 373/559/663 454/615/664 272/629/665
f 271/630/666 273/631/666 375/632/666
f 375/564/667 417/506/667 428/534/667
f 375/632/668 374/562/668 271/630/668
f 374/562/669 373/559/669 271/630/669
f 303/633/670 445/634/670 438/539/670
f 303/633/671 355/541/671 302/635/671
f 438/539/672 359/542/672 303/633/672
f 355/541/673 304/636/674 302/635/675
f 360/637/676 415/638/676 304/636/676
f 400/606/677 411/628/678 275/639/679
f 403/640/680 274/641/680 399/642/680
f 399/643/681 453/644/681 427/645/681
f 399/642/682 401/608/682 403/640/682
f 401/608/683 400/606/683 403/640/683
f 388/589/684 447/437/685 309/646/686
f 404/647/687 308/648/687 387/585/687
f 387/585/688 419/515/688 423/649/688
f 387/585/689 389/584/689 404/647/689
f 389/584/690 388/650/690 404/647/690
f 280/651/691 414/652/691 426/495/691
f 280/651/692 366/549/692 279/653/692
f 426/495/693 370/550/693 280/651/693
f 366/549/694 281/654/695 279/653/696
f 371/556/697 436/555/697 281/654/697
f 336/655/698 440/656/699 439/579/700
f 336/655/701 378/657/701 334/658/701
f 439/579/700 405/659/702 336/655/698
f 378/569/703 335/660/704 334/661/705
f 406/571/706 430/570/706 335/660/706
f 314/662/707 432/663/707 422/664/707
f 314/662/708 349/665/708 313/666/708
f 422/664/709 353/667/709 314/662/709
f 349/665/710 315/668/711 313/666/712
f 354/540/713 438/539/713 315/668/713
f 396/669/714 453/644/715 286/670/716
f 407/671/717 285/672/717 395/595/717
f 395/595/718 433/432/718 425/673/718
f 395/595/719 397/594/719 407/671/719
f 397/594/720 396/669/720 407/671/720
f 409/580/721 440/656/722 322/674/723
f 321/675/724 323/676/725 408/581/726
f 408/581/727 443/677/727 457/533/727
f 408/581/726 382/578/728 321/675/724
f 382/578/729 409/580/729 321/675/729
f 294/425/730 361/422/730 295/424/730
f 361/422/451 429/466/731 448/423/452
f 363/427/732 296/426/732 451/428/732
f 290/678/733 392/679/733 298/680/733
f 392/431/458 425/673/734 433/432/459
f 391/436/735 297/435/735 447/437/735
f 328/448/736 422/450/736 432/681/736
f 347/446/737 348/449/737 328/448/737
f 276/458/738 324/451/738 277/453/738
f 324/451/470 412/476/739 452/452/471
f 278/454/740 325/459/740 398/457/740
f 305/469/741 356/460/741 306/462/741
f 356/460/479 413/484/742 444/461/480
f 358/465/743 307/464/743 448/423/743
f 287/473/744 338/470/744 288/472/744
f 338/470/486 416/500/745 450/471/487
f 337/475/746 289/474/746 452/452/746
f 316/481/747 350/478/747 317/480/747
f 350/478/495 418/512/748 442/479/496
f 352/483/749 318/482/749 444/461/749
f 293/493/750 426/495/750 414/652/750
f 292/486/751 364/491/751 365/489/751
f 300/502/752 420/504/752 446/527/752
f 339/499/753 301/682/753 450/471/753
f 390/501/512 340/503/754 300/502/513
f 329/508/755 344/505/755 330/507/755
f 344/505/516 428/534/756 417/506/517
f 346/511/757 331/683/757 442/479/757
f 341/517/758 384/514/758 320/516/758
f 384/514/523 423/649/759 419/515/524
f 383/684/760 319/685/760 441/686/760
f 311/530/761 457/533/761 443/677/761
f 342/526/762 312/525/762 446/527/762
f 386/529/535 343/532/763 311/530/536
f 344/505/764 347/446/764 431/445/764
f 347/446/765 346/510/765 348/449/765
f 346/510/542 418/687/766 422/450/543
f 350/478/546 353/536/767 422/537/547
f 349/535/768 352/483/768 354/688/768
f 352/538/551 413/544/769 438/539/552
f 356/543/555 359/542/770 438/539/556
f 355/546/771 358/465/771 360/547/771
f 358/465/560 429/466/772 415/488/561
f 361/422/564 364/491/773 415/488/565
f 363/548/774 434/552/774 426/495/774
f 367/551/571 370/550/775 426/495/572
f 366/549/776 369/554/776 371/556/776
f 369/554/576 435/689/777 436/555/577
f 373/559/580 376/558/778 436/560/581
f 372/565/779 375/564/779 377/566/779
f 375/564/585 428/534/780 431/445/586
f 378/569/781 379/568/781 406/571/781
f 379/568/589 437/607/782 430/570/590
f 380/573/593 405/572/783 439/574/594
f 382/578/784 383/577/784 409/580/784
f 383/577/598 421/690/785 439/579/599
f 384/582/602 408/581/786 457/533/603
f 386/586/787 387/585/787 343/588/787
f 387/585/607 423/649/788 457/587/608
f 388/589/611 342/526/789 420/504/612
f 390/501/790 391/436/790 340/503/790
f 391/436/616 424/438/791 420/504/617
f 392/591/620 339/498/792 416/592/621
f 394/596/793 395/595/793 338/598/793
f 395/595/625 425/673/794 416/597/626
f 396/599/629 337/475/795 412/476/630
f 398/457/796 399/603/796 324/451/796
f 399/603/634 427/600/797 412/476/635
f 400/606/638 325/605/798 430/570/639
f 282/612/799 367/609/799 283/611/799
f 367/609/642 434/691/800 451/610/643
f 369/614/801 284/613/801 454/615/801
f 270/622/802 431/445/802 410/444/802
f 269/617/803 376/621/803 372/619/803
f 372/565/652 377/566/804 270/622/653
f 402/626/805 380/573/805 333/625/805
f 380/573/656 421/575/806 441/624/657
f 379/568/807 332/627/807 411/628/807
f 271/630/808 373/559/808 272/629/808
f 373/559/663 435/561/809 454/615/664
f 375/564/810 273/692/810 417/506/810
f 304/636/811 415/638/811 449/693/811
f 303/633/812 359/542/812 355/541/812
f 355/541/673 360/637/813 304/636/674
f 403/640/814 400/606/814 275/639/814
f 400/606/677 437/607/815 411/628/678
f 399/643/816 274/694/816 453/644/816
f 404/647/817 388/650/817 309/695/817
f 388/589/684 424/438/818 447/437/685
f 387/585/819 308/648/819 419/515/819
f 281/654/820 436/555/820 455/618/820
f 280/651/821 370/550/821 366/549/821
f 366/549/694 371/556/822 281/654/695
f 335/660/823 430/570/823 456/696/823
f 336/655/824 405/659/824 378/657/824
f 378/569/703 406/571/825 335/660/704
f 315/668/826 438/539/826 445/634/826
f 314/662/827 353/667/827 349/665/827
f 349/665/710 354/540/828 315/668/711
f 407/671/829 396/669/829 286/670/829
f 396/669/714 427/645/830 453/644/715
f 395/595/831 285/672/831 433/432/831
f 321/675/832 409/580/832 322/674/832
f 409/580/721 439/579/833 440/656/722
f 408/581/834 323/676/834 443/677/834
